<?xml version="1.0" standalone="no"?>
 <!DOCTYPE svg PUBLIC "-//W3C//DTD SVG 1.1//EN" 
 "http://www.w3.org/Graphics/SVG/1.1/DTD/svg11.dtd"> 
<svg
  xmlns:svg="http://www.w3.org/2000/svg"
  xmlns="http://www.w3.org/2000/svg"
  xmlns:xlink="http://www.w3.org/1999/xlink"
  version="1.1"
  width="94.0816mm" height="94.1578mm" viewBox="0.0000 0.0000 94.0816 94.1578">
<title>SVG Image created as board-bottom.svg date 2026/10/08 21:36:25 </title>
  <desc>Image generated by PCBNEW </desc>
<g style="fill:#000000; fill-opacity:1.0000;stroke:#000000; stroke-opacity:1.0000;
stroke-linecap:round; stroke-linejoin:round;"
 transform="translate(0 0) scale(1 1)">
</g>
<g style="fill:#000000; fill-opacity:0.0; 
stroke:#000000; stroke-width:0.0000; stroke-opacity:1; 
stroke-linecap:round; stroke-linejoin:round;">
<g >
</g>
<g >
</g>
<g style="fill:#4D7FC4; fill-opacity:0.0; 
stroke:#4D7FC4; stroke-width:0.0000; stroke-opacity:1; 
stroke-linecap:round; stroke-linejoin:round;">
</g>
<g style="fill:#4D7FC4; fill-opacity:0.0; 
stroke:#4D7FC4; stroke-width:0.0000; stroke-opacity:1; 
stroke-linecap:round; stroke-linejoin:round;">
</g>
<g style="fill:#4D7FC4; fill-opacity:1.0000; 
stroke:#4D7FC4; stroke-width:0.0000; stroke-opacity:1; 
stroke-linecap:round; stroke-linejoin:round;">
<path style="fill:#4D7FC4; fill-opacity:1.0000; 
stroke:#4D7FC4; stroke-width:0.0000; stroke-opacity:1; 
stroke-linecap:round; stroke-linejoin:round;fill-rule:evenodd;"
d="M 39.8316,81.5500
39.8316,83.5500
40.7316,83.5500
40.7316,81.5500
Z" /> 
<path style="fill:#4D7FC4; fill-opacity:1.0000; 
stroke:#4D7FC4; stroke-width:0.0000; stroke-opacity:1; 
stroke-linecap:round; stroke-linejoin:round;fill-rule:evenodd;"
d="M 53.3316,81.5500
53.3316,83.5500
54.2316,83.5500
54.2316,81.5500
Z" /> 
<path style="fill:#4D7FC4; fill-opacity:1.0000; 
stroke:#4D7FC4; stroke-width:0.0000; stroke-opacity:1; 
stroke-linecap:round; stroke-linejoin:round;fill-rule:evenodd;"
d="M 41.3816,77.5750
41.4013,77.7750
41.4596,77.9673
41.5543,78.1445
41.6818,78.2998
41.8371,78.4273
42.0143,78.5220
42.2066,78.5803
42.4066,78.6000
44.4566,78.6000
44.6566,78.5803
44.8489,78.5220
45.0261,78.4273
45.1814,78.2998
45.3089,78.1445
45.4036,77.9673
45.4619,77.7750
45.4816,77.5750
45.4816,75.5250
45.4619,75.3250
45.4036,75.1327
45.3089,74.9555
45.1814,74.8002
45.0261,74.6727
44.8489,74.5780
44.6566,74.5197
44.4566,74.5000
42.4066,74.5000
42.2066,74.5197
42.0143,74.5780
41.8371,74.6727
41.6818,74.8002
41.5543,74.9555
41.4596,75.1327
41.4013,75.3250
41.3816,75.5250
Z" /> 
<circle cx="50.6316" cy="76.5500" r="2.0500" /> 
</g>
<g style="fill:#4D7FC4; fill-opacity:1.0000; 
stroke:#4D7FC4; stroke-width:0.0212; stroke-opacity:1; 
stroke-linecap:round; stroke-linejoin:round;">
</g>
<g >
</g>
<g style="fill:#4D7FC4; fill-opacity:1.0000; 
stroke:#4D7FC4; stroke-width:0.0212; stroke-opacity:1; 
stroke-linecap:round; stroke-linejoin:round;">
</g>
<g style="fill:#4D7FC4; fill-opacity:1.0000; 
stroke:#4D7FC4; stroke-width:0.0000; stroke-opacity:1; 
stroke-linecap:round; stroke-linejoin:round;">
<path style="fill:#4D7FC4; fill-opacity:1.0000; 
stroke:#4D7FC4; stroke-width:0.0000; stroke-opacity:1; 
stroke-linecap:round; stroke-linejoin:round;fill-rule:evenodd;"
d="M 83.3316,50.7500
85.7316,50.7500
85.7316,48.3500
83.3316,48.3500
Z" /> 
<circle cx="84.5316" cy="44.5500" r="1.2000" /> 
</g>
<g style="fill:#4D7FC4; fill-opacity:1.0000; 
stroke:#4D7FC4; stroke-width:0.0212; stroke-opacity:1; 
stroke-linecap:round; stroke-linejoin:round;">
</g>
<g >
</g>
<g >
</g>
<g style="fill:#4D7FC4; fill-opacity:1.0000; 
stroke:#4D7FC4; stroke-width:0.0212; stroke-opacity:1; 
stroke-linecap:round; stroke-linejoin:round;">
</g>
<g style="fill:#4D7FC4; fill-opacity:1.0000; 
stroke:#4D7FC4; stroke-width:0.0000; stroke-opacity:1; 
stroke-linecap:round; stroke-linejoin:round;">
<path style="fill:#4D7FC4; fill-opacity:1.0000; 
stroke:#4D7FC4; stroke-width:0.0000; stroke-opacity:1; 
stroke-linecap:round; stroke-linejoin:round;fill-rule:evenodd;"
d="M 25.6816,93.2000
27.3816,93.2000
27.3816,91.5000
25.6816,91.5000
Z" /> 
<circle cx="23.9916" cy="92.3500" r="0.8500" /> 
</g>
<g >
</g>
<g style="fill:#4D7FC4; fill-opacity:1.0000; 
stroke:#4D7FC4; stroke-width:0.0000; stroke-opacity:1; 
stroke-linecap:round; stroke-linejoin:round;">
<circle cx="83.0316" cy="23.0500" r="2.1000" /> 
</g>
<g style="fill:#4D7FC4; fill-opacity:1.0000; 
stroke:#4D7FC4; stroke-width:0.0212; stroke-opacity:1; 
stroke-linecap:round; stroke-linejoin:round;">
</g>
<g >
</g>
<g style="fill:#4D7FC4; fill-opacity:1.0000; 
stroke:#4D7FC4; stroke-width:0.0212; stroke-opacity:1; 
stroke-linecap:round; stroke-linejoin:round;">
</g>
<g style="fill:#4D7FC4; fill-opacity:1.0000; 
stroke:#4D7FC4; stroke-width:0.0000; stroke-opacity:1; 
stroke-linecap:round; stroke-linejoin:round;">
<circle cx="83.0316" cy="30.0500" r="2.1000" /> 
</g>
<g style="fill:#4D7FC4; fill-opacity:1.0000; 
stroke:#4D7FC4; stroke-width:0.0212; stroke-opacity:1; 
stroke-linecap:round; stroke-linejoin:round;">
</g>
<g >
</g>
<g style="fill:#4D7FC4; fill-opacity:1.0000; 
stroke:#4D7FC4; stroke-width:0.0212; stroke-opacity:1; 
stroke-linecap:round; stroke-linejoin:round;">
</g>
<g style="fill:#4D7FC4; fill-opacity:1.0000; 
stroke:#4D7FC4; stroke-width:0.0000; stroke-opacity:1; 
stroke-linecap:round; stroke-linejoin:round;">
<circle cx="11.0316" cy="71.0500" r="2.1000" /> 
</g>
<g style="fill:#4D7FC4; fill-opacity:1.0000; 
stroke:#4D7FC4; stroke-width:0.0212; stroke-opacity:1; 
stroke-linecap:round; stroke-linejoin:round;">
</g>
<g >
</g>
<g >
</g>
<g >
</g>
<g >
</g>
<g style="fill:#4D7FC4; fill-opacity:1.0000; 
stroke:#4D7FC4; stroke-width:0.0212; stroke-opacity:1; 
stroke-linecap:round; stroke-linejoin:round;">
</g>
<g style="fill:#4D7FC4; fill-opacity:1.0000; 
stroke:#4D7FC4; stroke-width:0.0000; stroke-opacity:1; 
stroke-linecap:round; stroke-linejoin:round;">
<path style="fill:#4D7FC4; fill-opacity:1.0000; 
stroke:#4D7FC4; stroke-width:0.0000; stroke-opacity:1; 
stroke-linecap:round; stroke-linejoin:round;fill-rule:evenodd;"
d="M 8.3316,50.7500
10.7316,50.7500
10.7316,48.3500
8.3316,48.3500
Z" /> 
<circle cx="9.5316" cy="44.5500" r="1.2000" /> 
</g>
<g style="fill:#4D7FC4; fill-opacity:1.0000; 
stroke:#4D7FC4; stroke-width:0.0212; stroke-opacity:1; 
stroke-linecap:round; stroke-linejoin:round;">
</g>
<g >
</g>
<g style="fill:#4D7FC4; fill-opacity:1.0000; 
stroke:#4D7FC4; stroke-width:0.0212; stroke-opacity:1; 
stroke-linecap:round; stroke-linejoin:round;">
</g>
<g style="fill:#4D7FC4; fill-opacity:1.0000; 
stroke:#4D7FC4; stroke-width:0.0000; stroke-opacity:1; 
stroke-linecap:round; stroke-linejoin:round;">
<circle cx="11.0316" cy="30.0500" r="2.1000" /> 
</g>
<g style="fill:#4D7FC4; fill-opacity:1.0000; 
stroke:#4D7FC4; stroke-width:0.0212; stroke-opacity:1; 
stroke-linecap:round; stroke-linejoin:round;">
</g>
<g >
</g>
<g >
</g>
<g >
</g>
<g style="fill:#4D7FC4; fill-opacity:1.0000; 
stroke:#4D7FC4; stroke-width:0.0212; stroke-opacity:1; 
stroke-linecap:round; stroke-linejoin:round;">
</g>
<g style="fill:#4D7FC4; fill-opacity:1.0000; 
stroke:#4D7FC4; stroke-width:0.0000; stroke-opacity:1; 
stroke-linecap:round; stroke-linejoin:round;">
<circle cx="11.0316" cy="64.0500" r="2.1000" /> 
</g>
<g style="fill:#4D7FC4; fill-opacity:1.0000; 
stroke:#4D7FC4; stroke-width:0.0212; stroke-opacity:1; 
stroke-linecap:round; stroke-linejoin:round;">
</g>
<g >
</g>
<g style="fill:#4D7FC4; fill-opacity:1.0000; 
stroke:#4D7FC4; stroke-width:0.0212; stroke-opacity:1; 
stroke-linecap:round; stroke-linejoin:round;">
</g>
<g style="fill:#4D7FC4; fill-opacity:1.0000; 
stroke:#4D7FC4; stroke-width:0.0000; stroke-opacity:1; 
stroke-linecap:round; stroke-linejoin:round;">
<path style="fill:#4D7FC4; fill-opacity:1.0000; 
stroke:#4D7FC4; stroke-width:0.0000; stroke-opacity:1; 
stroke-linecap:round; stroke-linejoin:round;fill-rule:evenodd;"
d="M 49.9916,14.4000
51.6916,14.4000
51.6916,12.7000
49.9916,12.7000
Z" /> 
<circle cx="48.3016" cy="13.5500" r="0.8500" /> 
<circle cx="45.7616" cy="13.5500" r="0.8500" /> 
<circle cx="43.2216" cy="13.5500" r="0.8500" /> 
<circle cx="40.6816" cy="13.5500" r="0.8500" /> 
</g>
<g >
</g>
<g >
</g>
<g >
</g>
<g >
</g>
<g style="fill:#4D7FC4; fill-opacity:1.0000; 
stroke:#4D7FC4; stroke-width:0.0000; stroke-opacity:1; 
stroke-linecap:round; stroke-linejoin:round;">
<circle cx="35.0316" cy="78.0500" r="2.1000" /> 
</g>
<g style="fill:#4D7FC4; fill-opacity:1.0000; 
stroke:#4D7FC4; stroke-width:0.0212; stroke-opacity:1; 
stroke-linecap:round; stroke-linejoin:round;">
</g>
<g >
</g>
<g style="fill:#4D7FC4; fill-opacity:1.0000; 
stroke:#4D7FC4; stroke-width:0.0212; stroke-opacity:1; 
stroke-linecap:round; stroke-linejoin:round;">
</g>
<g style="fill:#4D7FC4; fill-opacity:1.0000; 
stroke:#4D7FC4; stroke-width:0.0000; stroke-opacity:1; 
stroke-linecap:round; stroke-linejoin:round;">
<path style="fill:#4D7FC4; fill-opacity:1.0000; 
stroke:#4D7FC4; stroke-width:0.0000; stroke-opacity:1; 
stroke-linecap:round; stroke-linejoin:round;fill-rule:evenodd;"
d="M 42.3716,6.7800
42.3716,8.4800
44.0716,8.4800
44.0716,6.7800
Z" /> 
<circle cx="43.2216" cy="5.0900" r="0.8500" /> 
<circle cx="43.2216" cy="2.5500" r="0.8500" /> 
<circle cx="45.7616" cy="7.6300" r="0.8500" /> 
<circle cx="45.7616" cy="5.0900" r="0.8500" /> 
<circle cx="45.7616" cy="2.5500" r="0.8500" /> 
<circle cx="48.3016" cy="7.6300" r="0.8500" /> 
<circle cx="48.3016" cy="5.0900" r="0.8500" /> 
<circle cx="48.3016" cy="2.5500" r="0.8500" /> 
<circle cx="50.8416" cy="7.6300" r="0.8500" /> 
<circle cx="50.8416" cy="5.0900" r="0.8500" /> 
<circle cx="50.8416" cy="2.5500" r="0.8500" /> 
</g>
<g >
</g>
<g >
</g>
<g >
</g>
<g >
</g>
<g style="fill:#4D7FC4; fill-opacity:1.0000; 
stroke:#4D7FC4; stroke-width:0.0000; stroke-opacity:1; 
stroke-linecap:round; stroke-linejoin:round;">
<path style="fill:#4D7FC4; fill-opacity:1.0000; 
stroke:#4D7FC4; stroke-width:0.0000; stroke-opacity:1; 
stroke-linecap:round; stroke-linejoin:round;fill-rule:evenodd;"
d="M 31.4916,14.4000
33.1916,14.4000
33.1916,12.7000
31.4916,12.7000
Z" /> 
<circle cx="29.8016" cy="13.5500" r="0.8500" /> 
<circle cx="27.2616" cy="13.5500" r="0.8500" /> 
<circle cx="24.7216" cy="13.5500" r="0.8500" /> 
</g>
<g >
</g>
<g style="fill:#4D7FC4; fill-opacity:1.0000; 
stroke:#4D7FC4; stroke-width:0.0000; stroke-opacity:1; 
stroke-linecap:round; stroke-linejoin:round;">
<circle cx="59.0316" cy="78.0500" r="2.1000" /> 
</g>
<g style="fill:#4D7FC4; fill-opacity:1.0000; 
stroke:#4D7FC4; stroke-width:0.0212; stroke-opacity:1; 
stroke-linecap:round; stroke-linejoin:round;">
</g>
<g >
</g>
<g >
</g>
<g >
</g>
<g style="fill:#4D7FC4; fill-opacity:1.0000; 
stroke:#4D7FC4; stroke-width:0.0212; stroke-opacity:1; 
stroke-linecap:round; stroke-linejoin:round;">
</g>
<g style="fill:#4D7FC4; fill-opacity:1.0000; 
stroke:#4D7FC4; stroke-width:0.0000; stroke-opacity:1; 
stroke-linecap:round; stroke-linejoin:round;">
<circle cx="83.0316" cy="64.0500" r="2.1000" /> 
</g>
<g style="fill:#4D7FC4; fill-opacity:1.0000; 
stroke:#4D7FC4; stroke-width:0.0212; stroke-opacity:1; 
stroke-linecap:round; stroke-linejoin:round;">
</g>
<g >
</g>
<g style="fill:#4D7FC4; fill-opacity:1.0000; 
stroke:#4D7FC4; stroke-width:0.0212; stroke-opacity:1; 
stroke-linecap:round; stroke-linejoin:round;">
</g>
<g style="fill:#4D7FC4; fill-opacity:1.0000; 
stroke:#4D7FC4; stroke-width:0.0000; stroke-opacity:1; 
stroke-linecap:round; stroke-linejoin:round;">
<circle cx="83.0316" cy="71.0500" r="2.1000" /> 
</g>
<g style="fill:#4D7FC4; fill-opacity:1.0000; 
stroke:#4D7FC4; stroke-width:0.0212; stroke-opacity:1; 
stroke-linecap:round; stroke-linejoin:round;">
</g>
<g >
</g>
<g style="fill:#4D7FC4; fill-opacity:1.0000; 
stroke:#4D7FC4; stroke-width:0.0212; stroke-opacity:1; 
stroke-linecap:round; stroke-linejoin:round;">
</g>
<g style="fill:#4D7FC4; fill-opacity:1.0000; 
stroke:#4D7FC4; stroke-width:0.0000; stroke-opacity:1; 
stroke-linecap:round; stroke-linejoin:round;">
<circle cx="11.0316" cy="23.0500" r="2.1000" /> 
</g>
<g style="fill:#4D7FC4; fill-opacity:1.0000; 
stroke:#4D7FC4; stroke-width:0.0212; stroke-opacity:1; 
stroke-linecap:round; stroke-linejoin:round;">
</g>
<g >
</g>
<g >
</g>
<g style="fill:#4D7FC4; fill-opacity:1.0000; 
stroke:#4D7FC4; stroke-width:0.0212; stroke-opacity:1; 
stroke-linecap:round; stroke-linejoin:round;">
</g>
<g style="fill:#4D7FC4; fill-opacity:1.0000; 
stroke:#4D7FC4; stroke-width:0.0000; stroke-opacity:1; 
stroke-linecap:round; stroke-linejoin:round;">
<path style="fill:#4D7FC4; fill-opacity:1.0000; 
stroke:#4D7FC4; stroke-width:0.0000; stroke-opacity:1; 
stroke-linecap:round; stroke-linejoin:round;fill-rule:evenodd;"
d="M 71.0316,14.4000
72.7316,14.4000
72.7316,12.7000
71.0316,12.7000
Z" /> 
<circle cx="69.3416" cy="13.5500" r="0.8500" /> 
<circle cx="66.8016" cy="13.5500" r="0.8500" /> 
<circle cx="64.2616" cy="13.5500" r="0.8500" /> 
<circle cx="61.7216" cy="13.5500" r="0.8500" /> 
<circle cx="59.1816" cy="13.5500" r="0.8500" /> 
</g>
<g >
</g>
<g >
</g>
<g >
</g>
<g >
</g>
<g style="fill:#ECECEC; fill-opacity:1.0000; 
stroke:#ECECEC; stroke-width:0.0000; stroke-opacity:1; 
stroke-linecap:round; stroke-linejoin:round;">
<circle cx="18.3066" cy="90.1000" r="0.4000" /> 
</g>
<g style="fill:#ECECEC; fill-opacity:1.0000; 
stroke:#ECECEC; stroke-width:0.0212; stroke-opacity:1; 
stroke-linecap:round; stroke-linejoin:round;">
</g>
<g >
</g>
<g >
</g>
<g style="fill:#4D7FC4; fill-opacity:1.0000; 
stroke:#4D7FC4; stroke-width:0.0212; stroke-opacity:1; 
stroke-linecap:round; stroke-linejoin:round;">
<g >
</g>
<g style="fill:#4D7FC4; fill-opacity:1.0000; 
stroke:#4D7FC4; stroke-width:0.0000; stroke-opacity:1; 
stroke-linecap:round; stroke-linejoin:round;">
<path style="fill:#4D7FC4; fill-opacity:1.0000; 
stroke:#4D7FC4; stroke-width:0.0000; stroke-opacity:1; 
stroke-linecap:round; stroke-linejoin:round;fill-rule:evenodd;"
d="M 15.6853,0.5695
15.6045,0.6234
15.5506,0.7042
15.5316,0.7995
15.5316,19.3010
15.5506,19.3963
15.6045,19.4771
15.6853,19.5310
15.7806,19.5500
78.2826,19.5500
78.3779,19.5310
78.4587,19.4771
78.5126,19.3963
78.5316,19.3010
78.5316,14.4449
73.0321,14.4449
73.0321,14.4449
73.0292,14.4700
72.9838,14.5728
72.9838,14.5728
72.9838,14.5728
72.9044,14.6522
72.8016,14.6976
72.7765,14.7005
70.9867,14.7005
70.9616,14.6976
70.8588,14.6522
70.7794,14.5728
70.7340,14.4700
70.7311,14.4449
70.7311,14.3620
70.7121,14.2668
70.6582,14.1860
70.5774,14.1320
70.4821,14.1130
70.3868,14.1320
70.3060,14.1860
70.2834,14.2120
70.1955,14.3284
70.0379,14.4721
70.0379,14.4721
70.0379,14.4721
69.9364,14.5349
69.8566,14.5843
69.6578,14.6613
69.5530,14.6809
69.4482,14.7005
69.4482,14.7005
69.2350,14.7005
69.1452,14.6837
69.0254,14.6613
68.8266,14.5843
68.6453,14.4721
68.4877,14.3284
68.3592,14.1583
68.2642,13.9674
68.2058,13.7623
68.1862,13.5500
65.4170,13.5500
65.3974,13.7623
65.3974,13.7623
65.3390,13.9674
65.3390,13.9674
65.2440,14.1583
65.2440,14.1583
65.2440,14.1583
65.1155,14.3284
64.9579,14.4721
64.9579,14.4721
64.9579,14.4721
64.8564,14.5349
64.7766,14.5843
64.5778,14.6613
64.4730,14.6809
64.3682,14.7005
64.3682,14.7005
64.1550,14.7005
64.0652,14.6837
63.9454,14.6613
63.7466,14.5843
63.5653,14.4721
63.4077,14.3284
63.2792,14.1583
63.2145,14.0282
63.1551,13.9514
63.0707,13.9031
62.9744,13.8908
62.8806,13.9163
62.8038,13.9758
62.7687,14.0282
62.7040,14.1583
62.5755,14.3284
62.4179,14.4721
62.4179,14.4721
62.4179,14.4721
62.3164,14.5349
62.2366,14.5843
62.0378,14.6613
61.9330,14.6809
61.8282,14.7005
61.8282,14.7005
61.6150,14.7005
61.5252,14.6837
61.4054,14.6613
61.2066,14.5843
61.0253,14.4721
60.8677,14.3284
60.7392,14.1583
60.6745,14.0282
60.6151,13.9514
60.5307,13.9031
60.4344,13.8908
60.3406,13.9163
60.2638,13.9758
60.2287,14.0282
60.1640,14.1583
60.0355,14.3284
59.8779,14.4721
59.8779,14.4721
59.8779,14.4721
59.7764,14.5349
59.6966,14.5843
59.4978,14.6613
59.3930,14.6809
59.2882,14.7005
59.2882,14.7005
59.0750,14.7005
58.9852,14.6837
58.8654,14.6613
58.6666,14.5843
58.4853,14.4721
58.4555,14.4449
51.9921,14.4449
51.9921,14.4449
51.9892,14.4700
51.9438,14.5728
51.9438,14.5728
51.9438,14.5728
51.8644,14.6522
51.7616,14.6976
51.7365,14.7005
49.9467,14.7005
49.9216,14.6976
49.8188,14.6522
49.7394,14.5728
49.6940,14.4700
49.6911,14.4449
49.6911,14.3620
49.6721,14.2668
49.6182,14.1860
49.5374,14.1320
49.4421,14.1130
49.3468,14.1320
49.2660,14.1860
49.2434,14.2120
49.1555,14.3284
48.9979,14.4721
48.9979,14.4721
48.9979,14.4721
48.8964,14.5349
48.8166,14.5843
48.6178,14.6613
48.5130,14.6809
48.4082,14.7005
48.4082,14.7005
48.1950,14.7005
48.1052,14.6837
47.9854,14.6613
47.7866,14.5843
47.6053,14.4721
47.4477,14.3284
47.3192,14.1583
47.2545,14.0282
47.1951,13.9514
47.1107,13.9031
47.0144,13.8908
46.9206,13.9163
46.8438,13.9758
46.8087,14.0282
46.7440,14.1583
46.6155,14.3284
46.4579,14.4721
46.4579,14.4721
46.4579,14.4721
46.3564,14.5349
46.2766,14.5843
46.0778,14.6613
45.9730,14.6809
45.8682,14.7005
45.8682,14.7005
45.6550,14.7005
45.5652,14.6837
45.4454,14.6613
45.2466,14.5843
45.0653,14.4721
44.9077,14.3284
44.7792,14.1583
44.7145,14.0282
44.6551,13.9514
44.5707,13.9031
44.4744,13.8908
44.3806,13.9163
44.3038,13.9758
44.2687,14.0282
44.2040,14.1583
44.0755,14.3284
43.9179,14.4721
43.9179,14.4721
43.9179,14.4721
43.8164,14.5349
43.7366,14.5843
43.5378,14.6613
43.4330,14.6809
43.3282,14.7005
43.3282,14.7005
43.1150,14.7005
43.0252,14.6837
42.9054,14.6613
42.7066,14.5843
42.5253,14.4721
42.4955,14.4449
33.4921,14.4449
33.4921,14.4449
33.4892,14.4700
33.4438,14.5728
33.4438,14.5728
33.4438,14.5728
33.3644,14.6522
33.2616,14.6976
33.2365,14.7005
31.4467,14.7005
31.4216,14.6976
31.3188,14.6522
31.2394,14.5728
31.1940,14.4700
31.1911,14.4449
31.1911,14.3620
31.1721,14.2668
31.1182,14.1860
31.0374,14.1320
30.9421,14.1130
30.8468,14.1320
30.7660,14.1860
30.7434,14.2120
30.6555,14.3284
30.4979,14.4721
30.4979,14.4721
30.4979,14.4721
30.3964,14.5349
30.3166,14.5843
30.1178,14.6613
30.0130,14.6809
29.9082,14.7005
29.9082,14.7005
29.6950,14.7005
29.6052,14.6837
29.4854,14.6613
29.2866,14.5843
29.1053,14.4721
28.9477,14.3284
28.8192,14.1583
28.7545,14.0282
28.6951,13.9514
28.6107,13.9031
28.5144,13.8908
28.4206,13.9163
28.3438,13.9758
28.3087,14.0282
28.2440,14.1583
28.1155,14.3284
27.9579,14.4721
27.9579,14.4721
27.9579,14.4721
27.8564,14.5349
27.7766,14.5843
27.5778,14.6613
27.4730,14.6809
27.3682,14.7005
27.3682,14.7005
27.1550,14.7005
27.0652,14.6837
26.9454,14.6613
26.7466,14.5843
26.5653,14.4721
26.4077,14.3284
26.2792,14.1583
26.1842,13.9674
26.1258,13.7623
26.1062,13.5500
26.1258,13.3377
26.1659,13.1969
26.1842,13.1326
26.1842,13.1326
26.1842,13.1326
26.2738,12.9526
26.2792,12.9417
26.2792,12.9417
26.4077,12.7716
26.5653,12.6279
26.5653,12.6279
26.5653,12.6279
26.7466,12.5157
26.7466,12.5157
26.9454,12.4387
26.9454,12.4387
26.9454,12.4387
27.1550,12.3995
27.1550,12.3995
27.3682,12.3995
27.3682,12.3995
27.5778,12.4387
27.5778,12.4387
27.5778,12.4387
27.6365,12.4614
27.7766,12.5157
27.7766,12.5157
27.9579,12.6279
27.9579,12.6279
27.9579,12.6279
28.1155,12.7716
28.2440,12.9417
28.2440,12.9417
28.2440,12.9418
28.2440,12.9418
28.3087,13.0718
28.3681,13.1486
28.4525,13.1969
28.5488,13.2092
28.6426,13.1837
28.7194,13.1242
28.7545,13.0718
28.8192,12.9418
28.8192,12.9418
28.8192,12.9417
28.8192,12.9417
28.9477,12.7716
29.1053,12.6279
29.1053,12.6279
29.1053,12.6279
29.2866,12.5157
29.2866,12.5157
29.4854,12.4387
29.4854,12.4387
29.4854,12.4387
29.6950,12.3995
29.6950,12.3995
29.9082,12.3995
29.9082,12.3995
30.1178,12.4387
30.1178,12.4387
30.1178,12.4387
30.1765,12.4614
30.3166,12.5157
30.3166,12.5157
30.4979,12.6279
30.4979,12.6279
30.4979,12.6279
30.5277,12.6551
30.6555,12.7716
30.7434,12.8880
30.8159,12.9526
30.9077,12.9846
31.0047,12.9790
31.0922,12.9367
31.1568,12.8641
31.1887,12.7724
31.1911,12.7380
31.1911,12.6551
31.1911,12.6551
31.1940,12.6300
31.1949,12.6279
31.2394,12.5272
31.2394,12.5272
31.2394,12.5272
31.3188,12.4478
31.4216,12.4024
31.4216,12.4024
31.4216,12.4024
31.4467,12.3995
33.2365,12.3995
33.2365,12.3995
33.2616,12.4024
33.3644,12.4478
33.4438,12.5272
33.4892,12.6300
33.4921,12.6551
33.4921,14.4449
42.4955,14.4449
42.3677,14.3284
42.2392,14.1583
42.1442,13.9674
42.0858,13.7623
42.0662,13.5500
42.0858,13.3377
42.1259,13.1969
42.1442,13.1326
42.1442,13.1326
42.1442,13.1326
42.2338,12.9526
42.2392,12.9417
42.2392,12.9417
42.3677,12.7716
42.5253,12.6279
42.5253,12.6279
42.5253,12.6279
42.7066,12.5157
42.7066,12.5157
42.9054,12.4387
42.9054,12.4387
42.9054,12.4387
43.1150,12.3995
43.1150,12.3995
43.3282,12.3995
43.3282,12.3995
43.5378,12.4387
43.5378,12.4387
43.5378,12.4387
43.5965,12.4614
43.7366,12.5157
43.7366,12.5157
43.9179,12.6279
43.9179,12.6279
43.9179,12.6279
44.0755,12.7716
44.2040,12.9417
44.2040,12.9417
44.2040,12.9418
44.2040,12.9418
44.2687,13.0718
44.3281,13.1486
44.4125,13.1969
44.5088,13.2092
44.6026,13.1837
44.6794,13.1242
44.7145,13.0718
44.7792,12.9418
44.7792,12.9418
44.7792,12.9417
44.7792,12.9417
44.9077,12.7716
45.0653,12.6279
45.0653,12.6279
45.0653,12.6279
45.2466,12.5157
45.2466,12.5157
45.4454,12.4387
45.4454,12.4387
45.4454,12.4387
45.6550,12.3995
45.6550,12.3995
45.8682,12.3995
45.8682,12.3995
46.0778,12.4387
46.0778,12.4387
46.0778,12.4387
46.1365,12.4614
46.2766,12.5157
46.2766,12.5157
46.4579,12.6279
46.4579,12.6279
46.4579,12.6279
46.6155,12.7716
46.7440,12.9417
46.7440,12.9417
46.7440,12.9418
46.7440,12.9418
46.8087,13.0718
46.8681,13.1486
46.9525,13.1969
47.0488,13.2092
47.1426,13.1837
47.2194,13.1242
47.2545,13.0718
47.3192,12.9418
47.3192,12.9418
47.3192,12.9417
47.3192,12.9417
47.4477,12.7716
47.6053,12.6279
47.6053,12.6279
47.6053,12.6279
47.7866,12.5157
47.7866,12.5157
47.9854,12.4387
47.9854,12.4387
47.9854,12.4387
48.1950,12.3995
48.1950,12.3995
48.4082,12.3995
48.4082,12.3995
48.6178,12.4387
48.6178,12.4387
48.6178,12.4387
48.6765,12.4614
48.8166,12.5157
48.8166,12.5157
48.9979,12.6279
48.9979,12.6279
48.9979,12.6279
49.0277,12.6551
49.1555,12.7716
49.2434,12.8880
49.3159,12.9526
49.4077,12.9846
49.5047,12.9790
49.5922,12.9367
49.6568,12.8641
49.6887,12.7724
49.6911,12.7380
49.6911,12.6551
49.6911,12.6551
49.6940,12.6300
49.6949,12.6279
49.7394,12.5272
49.7394,12.5272
49.7394,12.5272
49.8188,12.4478
49.9216,12.4024
49.9216,12.4024
49.9216,12.4024
49.9467,12.3995
51.7365,12.3995
51.7365,12.3995
51.7616,12.4024
51.8644,12.4478
51.9438,12.5272
51.9892,12.6300
51.9921,12.6551
51.9921,14.4449
58.4555,14.4449
58.3277,14.3284
58.1992,14.1583
58.1042,13.9674
58.0458,13.7623
58.0262,13.5500
58.0458,13.3377
58.0859,13.1969
58.1042,13.1326
58.1042,13.1326
58.1042,13.1326
58.1938,12.9526
58.1992,12.9417
58.1992,12.9417
58.3277,12.7716
58.4853,12.6279
58.4853,12.6279
58.4853,12.6279
58.6666,12.5157
58.6666,12.5157
58.8654,12.4387
58.8654,12.4387
58.8654,12.4387
59.0750,12.3995
59.0750,12.3995
59.2882,12.3995
59.2882,12.3995
59.4978,12.4387
59.4978,12.4387
59.4978,12.4387
59.5565,12.4614
59.6966,12.5157
59.6966,12.5157
59.8779,12.6279
59.8779,12.6279
59.8779,12.6279
60.0355,12.7716
60.1640,12.9417
60.1640,12.9417
60.1640,12.9418
60.1640,12.9418
60.2287,13.0718
60.2881,13.1486
60.3725,13.1969
60.4688,13.2092
60.5626,13.1837
60.6394,13.1242
60.6745,13.0718
60.7392,12.9418
60.7392,12.9418
60.7392,12.9417
60.7392,12.9417
60.8677,12.7716
61.0253,12.6279
61.0253,12.6279
61.0253,12.6279
61.2066,12.5157
61.2066,12.5157
61.4054,12.4387
61.4054,12.4387
61.4054,12.4387
61.6150,12.3995
61.6150,12.3995
61.8282,12.3995
61.8282,12.3995
62.0378,12.4387
62.0378,12.4387
62.0378,12.4387
62.0965,12.4614
62.2366,12.5157
62.2366,12.5157
62.4179,12.6279
62.4179,12.6279
62.4179,12.6279
62.5755,12.7716
62.7040,12.9417
62.7040,12.9417
62.7040,12.9418
62.7040,12.9418
62.7687,13.0718
62.8281,13.1486
62.9125,13.1969
63.0088,13.2092
63.1026,13.1837
63.1794,13.1242
63.2145,13.0718
63.2792,12.9418
63.2792,12.9418
63.2792,12.9417
63.2792,12.9417
63.4077,12.7716
63.5653,12.6279
63.5653,12.6279
63.5653,12.6279
63.7466,12.5157
63.7466,12.5157
63.9454,12.4387
63.9454,12.4387
63.9454,12.4387
64.1550,12.3995
64.1550,12.3995
64.3682,12.3995
64.3682,12.3995
64.5778,12.4387
64.5778,12.4387
64.5778,12.4387
64.6365,12.4614
64.7766,12.5157
64.7766,12.5157
64.9579,12.6279
64.9579,12.6279
64.9579,12.6279
64.9877,12.6551
65.1155,12.7716
65.2440,12.9417
65.3390,13.1326
65.3390,13.1326
65.3974,13.3377
65.3974,13.3377
65.4170,13.5500
68.1862,13.5500
68.2058,13.3377
68.2459,13.1969
68.2642,13.1326
68.2642,13.1326
68.2642,13.1326
68.3538,12.9526
68.3592,12.9417
68.3592,12.9417
68.4877,12.7716
68.6453,12.6279
68.6453,12.6279
68.6453,12.6279
68.8266,12.5157
68.8266,12.5157
69.0254,12.4387
69.0254,12.4387
69.0254,12.4387
69.2350,12.3995
69.2350,12.3995
69.4482,12.3995
69.4482,12.3995
69.6578,12.4387
69.6578,12.4387
69.6578,12.4387
69.7165,12.4614
69.8566,12.5157
69.8566,12.5157
70.0379,12.6279
70.0379,12.6279
70.0379,12.6279
70.0677,12.6551
70.1955,12.7716
70.2834,12.8880
70.3559,12.9526
70.4477,12.9846
70.5447,12.9790
70.6322,12.9367
70.6968,12.8641
70.7287,12.7724
70.7311,12.7380
70.7311,12.6551
70.7311,12.6551
70.7340,12.6300
70.7349,12.6279
70.7794,12.5272
70.7794,12.5272
70.7794,12.5272
70.8588,12.4478
70.9616,12.4024
70.9616,12.4024
70.9616,12.4024
70.9867,12.3995
72.7765,12.3995
72.7765,12.3995
72.8016,12.4024
72.9044,12.4478
72.9838,12.5272
73.0292,12.6300
73.0321,12.6551
73.0321,14.4449
78.5316,14.4449
78.5316,7.6300
51.9970,7.6300
51.9774,7.8423
51.9774,7.8423
51.9190,8.0474
51.9190,8.0474
51.8240,8.2383
51.8240,8.2383
51.8240,8.2383
51.6955,8.4084
51.5379,8.5521
51.5379,8.5521
51.5379,8.5521
51.4364,8.6149
51.3566,8.6643
51.1578,8.7413
51.0530,8.7609
50.9482,8.7805
50.9482,8.7805
50.7350,8.7805
50.6452,8.7637
50.5254,8.7413
50.3266,8.6643
50.1453,8.5521
49.9877,8.4084
49.8592,8.2383
49.7945,8.1082
49.7351,8.0314
49.6507,7.9831
49.5544,7.9708
49.4606,7.9963
49.3838,8.0558
49.3487,8.1082
49.2840,8.2383
49.1555,8.4084
48.9979,8.5521
48.9979,8.5521
48.9979,8.5521
48.8964,8.6149
48.8166,8.6643
48.6178,8.7413
48.5130,8.7609
48.4082,8.7805
48.4082,8.7805
48.1950,8.7805
48.1052,8.7637
47.9854,8.7413
47.7866,8.6643
47.6053,8.5521
47.4477,8.4084
47.3192,8.2383
47.2545,8.1082
47.1951,8.0314
47.1107,7.9831
47.0144,7.9708
46.9206,7.9963
46.8438,8.0558
46.8087,8.1082
46.7440,8.2383
46.6155,8.4084
46.4579,8.5521
46.4579,8.5521
46.4579,8.5521
46.3564,8.6149
46.2766,8.6643
46.0778,8.7413
45.9730,8.7609
45.8682,8.7805
45.8682,8.7805
45.6550,8.7805
45.5652,8.7637
45.4454,8.7413
45.2466,8.6643
45.0653,8.5521
44.9077,8.4084
44.8198,8.2920
44.7473,8.2274
44.6555,8.1954
44.5585,8.2010
44.4710,8.2433
44.4064,8.3159
44.3745,8.4076
44.3721,8.4420
44.3721,8.5249
44.3721,8.5249
44.3692,8.5500
44.3238,8.6528
44.3238,8.6528
44.3238,8.6528
44.2444,8.7322
44.1416,8.7776
44.1165,8.7805
42.3267,8.7805
42.3016,8.7776
42.1988,8.7322
42.1194,8.6528
42.0740,8.5500
42.0711,8.5249
42.0711,6.7351
42.0740,6.7100
42.0749,6.7079
42.1194,6.6072
42.1194,6.6072
42.1194,6.6072
42.1988,6.5278
42.3016,6.4824
42.3016,6.4824
42.3016,6.4824
42.3267,6.4795
42.4051,6.4795
42.5004,6.4605
42.5812,6.4066
42.6352,6.3258
42.6541,6.2305
42.6352,6.1352
42.5812,6.0544
42.5362,6.0188
42.5301,6.0151
42.5253,6.0121
42.3677,5.8684
42.2392,5.6983
42.1442,5.5074
42.0858,5.3023
42.0662,5.0900
42.0858,4.8777
42.1259,4.7369
42.1442,4.6726
42.1442,4.6726
42.1442,4.6726
42.2073,4.5459
42.2392,4.4817
42.2392,4.4817
42.3677,4.3116
42.5253,4.1679
42.5253,4.1679
42.5253,4.1679
42.7066,4.0557
42.7066,4.0557
42.9054,3.9787
42.9054,3.9787
42.9054,3.9787
43.1150,3.9395
43.1150,3.9395
43.3282,3.9395
43.3282,3.9395
43.5378,3.9787
43.7366,4.0557
43.7366,4.0557
43.9179,4.1679
43.9179,4.1679
43.9179,4.1679
44.0755,4.3116
44.2040,4.4817
44.2040,4.4817
44.2040,4.4818
44.2040,4.4818
44.2687,4.6118
44.3281,4.6886
44.4125,4.7369
44.5088,4.7492
44.6026,4.7237
44.6794,4.6642
44.7145,4.6118
44.7792,4.4818
44.7792,4.4818
44.7792,4.4817
44.7792,4.4817
44.9077,4.3116
45.0653,4.1679
45.0653,4.1679
45.0653,4.1679
45.2466,4.0557
45.2466,4.0557
45.4454,3.9787
45.4454,3.9787
45.4454,3.9787
45.6550,3.9395
45.6550,3.9395
45.8682,3.9395
45.8682,3.9395
46.0778,3.9787
46.2766,4.0557
46.2766,4.0557
46.4579,4.1679
46.4579,4.1679
46.4579,4.1679
46.6155,4.3116
46.7440,4.4817
46.7440,4.4817
46.7440,4.4818
46.7440,4.4818
46.8087,4.6118
46.8681,4.6886
46.9525,4.7369
47.0488,4.7492
47.1426,4.7237
47.2194,4.6642
47.2545,4.6118
47.3192,4.4818
47.3192,4.4818
47.3192,4.4817
47.3192,4.4817
47.4477,4.3116
47.6053,4.1679
47.6053,4.1679
47.6053,4.1679
47.7866,4.0557
47.7866,4.0557
47.9854,3.9787
47.9854,3.9787
47.9854,3.9787
48.1950,3.9395
48.1950,3.9395
48.4082,3.9395
48.4082,3.9395
48.6178,3.9787
48.8166,4.0557
48.8166,4.0557
48.9979,4.1679
48.9979,4.1679
48.9979,4.1679
49.1555,4.3116
49.2840,4.4817
49.2840,4.4817
49.2840,4.4818
49.2840,4.4818
49.3487,4.6118
49.4081,4.6886
49.4925,4.7369
49.5888,4.7492
49.6826,4.7237
49.7594,4.6642
49.7945,4.6118
49.8592,4.4818
49.8592,4.4818
49.8592,4.4817
49.8592,4.4817
49.9877,4.3116
50.1453,4.1679
50.1453,4.1679
50.1453,4.1679
50.3266,4.0557
50.3266,4.0557
50.5254,3.9787
50.5254,3.9787
50.5254,3.9787
50.7350,3.9395
50.7350,3.9395
50.9482,3.9395
50.9482,3.9395
51.1578,3.9787
51.3566,4.0557
51.3566,4.0557
51.5379,4.1679
51.6955,4.3116
51.8240,4.4817
51.9190,4.6726
51.9190,4.6726
51.9774,4.8777
51.9774,4.8777
51.9970,5.0900
51.9774,5.3023
51.9774,5.3023
51.9190,5.5074
51.9190,5.5074
51.8240,5.6983
51.8240,5.6983
51.8240,5.6983
51.6955,5.8684
51.5379,6.0121
51.5379,6.0121
51.5379,6.0121
51.4364,6.0749
51.3566,6.1243
51.3475,6.1278
51.3475,6.1278
51.2655,6.1799
51.2097,6.2594
51.1886,6.3543
51.2053,6.4500
51.2574,6.5320
51.3369,6.5878
51.3475,6.5922
51.3566,6.5957
51.3566,6.5957
51.5379,6.7079
51.5379,6.7079
51.5379,6.7079
51.5677,6.7351
51.6955,6.8516
51.8240,7.0217
51.9190,7.2126
51.9190,7.2126
51.9774,7.4177
51.9774,7.4177
51.9970,7.6300
78.5316,7.6300
78.5316,0.7995
78.5126,0.7042
78.4587,0.6234
78.3779,0.5695
78.2826,0.5505
15.7806,0.5505
Z" /> 
</g>
</g>
<g style="fill:#4D7FC4; fill-opacity:1.0000; 
stroke:#4D7FC4; stroke-width:0.0000; stroke-opacity:1; 
stroke-linecap:round; stroke-linejoin:round;">
<g >
<path style="fill:#4D7FC4; fill-opacity:1.0000; 
stroke:#4D7FC4; stroke-width:0.0000; stroke-opacity:1; 
stroke-linecap:round; stroke-linejoin:round;fill-rule:evenodd;"
d="M 79.1908,0.5695
79.1100,0.6234
79.0561,0.7042
79.0371,0.7995
79.0371,19.3010
79.0274,19.3996
79.0084,19.4949
78.9951,19.5473
78.9950,19.5473
78.9330,19.6771
78.9330,19.6771
78.8790,19.7579
78.8465,19.8012
78.7395,19.8974
78.7132,19.9150
78.6588,19.9513
78.6587,19.9513
78.6587,19.9514
78.6122,19.9790
78.4765,20.0268
78.3812,20.0458
78.2826,20.0555
78.2826,20.0555
69.0745,20.0555
69.0403,20.0623
68.9887,20.0555
25.0745,20.0555
25.0403,20.0623
24.9887,20.0555
15.7806,20.0555
15.7806,20.0555
15.6820,20.0458
15.5867,20.0268
15.5343,20.0135
15.4045,19.9514
15.3237,19.8974
15.2804,19.8649
15.1842,19.7579
15.1302,19.6771
15.1026,19.6306
15.0548,19.4949
15.0358,19.3996
15.0261,19.3010
15.0261,19.0500
6.7872,19.0500
6.7669,19.2559
6.7068,19.4540
6.6093,19.6365
6.4780,19.7964
6.4780,19.7964
6.3181,19.9277
6.3181,19.9277
6.3180,19.9277
6.1356,20.0252
6.0238,20.0591
5.9375,20.0853
5.9223,20.0868
5.7832,20.1005
5.7832,20.1005
3.2800,20.1005
3.2800,20.1005
3.1257,20.0853
2.9276,20.0252
2.7451,19.9277
2.5852,19.7964
2.5536,19.7579
2.5306,19.7299
2.4539,19.6364
2.3564,19.4540
2.2963,19.2559
2.2760,19.0500
2.2963,18.8441
2.3564,18.6460
2.4539,18.4635
2.4539,18.4635
2.5852,18.3036
2.5852,18.3036
2.7451,18.1723
2.9276,18.0748
3.1257,18.0147
3.2800,17.9995
5.7832,17.9995
5.7832,17.9995
5.9375,18.0147
6.1356,18.0748
6.3181,18.1723
6.4780,18.3036
6.4780,18.3036
6.6093,18.4635
6.7068,18.6460
6.7669,18.8441
6.7872,19.0500
15.0261,19.0500
15.0261,0.7995
15.0071,0.7042
14.9532,0.6234
14.8724,0.5695
14.7771,0.5505
4.0975,0.5505
4.0377,0.5505
4.0255,0.5508
4.0106,0.5515
3.7008,0.5668
3.6765,0.5691
3.3610,0.6159
3.3370,0.6207
3.0276,0.6982
3.0042,0.7053
2.7039,0.8128
2.6813,0.8221
2.3930,0.9585
2.3715,0.9700
2.0979,1.1340
2.0776,1.1476
1.8617,1.3077
1.8214,1.3376
1.8025,1.3531
1.5661,1.5673
1.5489,1.5845
1.3347,1.8209
1.3192,1.8398
1.1292,2.0960
1.1156,2.1163
0.9516,2.3899
0.9401,2.4114
0.8037,2.6997
0.7944,2.7223
0.6869,3.0226
0.6798,3.0460
0.6023,3.3554
0.5975,3.3794
0.5507,3.6949
0.5484,3.7192
0.5324,4.0439
0.5321,4.0561
0.5321,90.0439
0.5324,90.0561
0.5484,90.3808
0.5507,90.4051
0.5975,90.7206
0.6023,90.7446
0.6798,91.0540
0.6869,91.0774
0.7944,91.3777
0.8037,91.4003
0.9401,91.6886
0.9516,91.7101
1.1156,91.9837
1.1292,92.0040
1.3192,92.2602
1.3347,92.2791
1.5489,92.5155
1.5661,92.5327
1.8025,92.7469
1.8214,92.7624
2.0776,92.9524
2.0979,92.9660
2.3715,93.1300
2.3930,93.1415
2.6813,93.2779
2.7039,93.2872
3.0042,93.3947
3.0276,93.4018
3.3370,93.4793
3.3610,93.4841
3.6765,93.5309
3.7008,93.5332
4.0255,93.5492
4.0377,93.5495
22.7045,93.5495
22.7998,93.5305
22.8806,93.4766
22.9346,93.3958
22.9535,93.3005
22.9346,93.2052
22.9085,93.1577
22.8891,93.1300
22.8176,93.0278
22.7177,92.8137
22.6565,92.5854
22.6565,92.5854
22.6359,92.3500
22.6359,92.3500
22.6565,92.1146
22.6565,92.1146
22.6565,92.1146
22.7177,91.8863
22.8176,91.6722
22.9531,91.4786
23.1202,91.3115
23.3138,91.1760
23.5279,91.0761
23.5279,91.0761
23.7562,91.0149
23.9916,90.9943
23.9916,90.9943
24.2270,91.0149
24.4553,91.0761
24.4553,91.0761
24.6694,91.1760
24.6694,91.1760
24.8630,91.3115
24.8670,91.3149
24.8706,91.3169
24.8719,91.3177
24.8720,91.3176
24.9522,91.3616
25.0488,91.3721
25.1420,91.3450
25.2178,91.2841
25.2265,91.2714
25.2271,91.2719
25.2378,91.2577
25.2378,91.2577
25.3241,91.1425
25.4393,91.0562
25.5229,91.0250
25.5741,91.0059
25.6337,90.9995
27.4295,90.9995
27.4295,90.9995
27.4295,90.9995
27.4423,91.0009
27.4891,91.0059
27.4891,91.0059
27.6239,91.0562
27.7391,91.1425
27.7391,91.1425
27.8254,91.2577
27.8757,91.3925
27.8821,91.4521
27.8821,93.2479
27.8821,93.2479
27.8793,93.2739
27.8880,93.3707
27.9330,93.4567
28.0075,93.5190
28.1003,93.5481
28.1269,93.5495
90.0255,93.5495
90.0377,93.5492
90.3624,93.5332
90.3867,93.5309
90.7022,93.4841
90.7262,93.4793
91.0356,93.4018
91.0590,93.3947
91.3593,93.2872
91.3819,93.2779
91.6702,93.1415
91.6917,93.1300
91.8279,93.0484
91.9653,92.9660
91.9856,92.9524
92.2418,92.7624
92.2607,92.7469
92.4971,92.5327
92.5143,92.5155
92.7285,92.2791
92.7440,92.2602
92.8520,92.1146
92.9340,92.0040
92.9476,91.9837
93.1116,91.7101
93.1231,91.6886
93.2595,91.4003
93.2688,91.3777
93.2913,91.3149
93.3763,91.0774
93.3834,91.0540
93.4609,90.7446
93.4657,90.7206
93.5125,90.4051
93.5148,90.3808
93.5308,90.0561
93.5311,90.0439
93.5311,83.5979
54.7321,83.5979
54.7321,83.5979
54.7300,83.6171
54.7257,83.6575
54.7257,83.6575
54.6754,83.7923
54.5891,83.9075
54.4739,83.9938
54.3391,84.0441
54.2795,84.0505
53.2837,84.0505
53.2241,84.0441
53.0893,83.9938
52.9741,83.9075
52.8878,83.7923
52.8375,83.6575
52.8311,83.5979
52.8311,83.5979
41.2321,83.5979
41.2321,83.5979
41.2300,83.6171
41.2257,83.6575
41.2257,83.6575
41.1754,83.7923
41.0891,83.9075
40.9739,83.9938
40.8391,84.0441
40.7795,84.0505
39.7837,84.0505
39.7241,84.0441
39.5893,83.9938
39.4741,83.9075
39.3878,83.7923
39.3375,83.6575
39.3311,83.5979
39.3311,81.5021
39.3375,81.4425
39.3878,81.3077
39.4741,81.1925
39.5893,81.1062
39.6695,81.0763
39.7241,81.0559
39.7837,81.0495
40.7795,81.0495
40.7795,81.0495
40.7795,81.0495
40.7923,81.0509
40.8391,81.0559
40.8391,81.0559
40.9739,81.1062
41.0891,81.1925
41.0891,81.1925
41.1754,81.3077
41.2257,81.4425
41.2321,81.5021
41.2321,83.5979
41.2321,83.5979
52.8311,83.5979
52.8311,81.5021
52.8375,81.4425
52.8878,81.3077
52.9741,81.1925
53.0893,81.1062
53.1695,81.0763
53.2241,81.0559
53.2837,81.0495
54.2795,81.0495
54.2795,81.0495
54.2795,81.0495
54.2923,81.0509
54.3391,81.0559
54.3391,81.0559
54.4739,81.1062
54.5891,81.1925
54.5891,81.1925
54.6754,81.3077
54.7257,81.4425
54.7321,81.5021
54.7321,83.5979
54.7321,83.5979
93.5311,83.5979
93.5311,78.0500
61.6369,78.0500
61.6179,78.3640
61.5612,78.6735
61.5611,78.6735
61.4676,78.9738
61.3384,79.2607
61.1757,79.5300
60.9817,79.7776
60.9817,79.7776
60.9817,79.7776
60.7592,80.0001
60.7592,80.0001
60.7592,80.0001
60.5116,80.1941
60.2423,80.3568
60.2423,80.3568
60.2423,80.3568
59.9554,80.4860
59.9554,80.4860
59.9554,80.4860
59.6551,80.5795
59.6551,80.5795
59.6551,80.5795
59.4383,80.6193
59.3456,80.6363
59.3456,80.6363
59.3456,80.6363
59.0316,80.6553
58.7176,80.6363
58.4081,80.5795
58.1078,80.4860
57.8209,80.3568
57.5516,80.1941
57.3040,80.0001
57.0815,79.7776
56.8875,79.5300
56.7248,79.2607
56.5956,78.9738
56.5021,78.6735
56.4453,78.3640
56.4263,78.0500
56.4453,77.7360
56.5021,77.4265
56.5956,77.1262
56.7248,76.8393
56.8875,76.5700
56.9032,76.5500
53.1871,76.5500
53.1670,76.8703
53.1670,76.8703
53.1069,77.1855
53.1069,77.1855
53.0077,77.4908
52.8710,77.7811
52.8710,77.7811
52.6991,78.0521
52.4945,78.2994
52.2606,78.5191
52.2606,78.5191
52.0009,78.7077
52.0009,78.7077
51.7197,78.8623
51.7197,78.8623
51.4381,78.9738
51.4213,78.9805
51.1105,79.0603
50.7921,79.1005
50.7921,79.1005
50.4711,79.1005
50.4711,79.1005
50.1527,79.0603
49.8419,78.9805
49.7620,78.9488
49.5435,78.8623
49.5435,78.8623
49.2623,78.7077
49.2623,78.7077
49.0026,78.5191
49.0026,78.5191
48.8375,78.3640
48.7687,78.2994
48.5641,78.0521
48.3922,77.7811
48.2555,77.4908
48.1563,77.1855
48.0962,76.8703
48.0761,76.5500
48.0962,76.2297
48.0962,76.2297
48.0962,76.2297
48.1288,76.0586
48.1563,75.9145
48.2555,75.6092
48.3922,75.3189
48.5628,75.0500
6.7872,75.0500
6.7669,75.2559
6.7068,75.4540
6.6093,75.6365
6.4780,75.7964
6.4780,75.7964
6.3181,75.9277
6.3181,75.9277
6.3180,75.9277
6.1356,76.0252
6.0238,76.0591
5.9375,76.0853
5.9223,76.0868
5.7832,76.1005
5.7832,76.1005
3.2800,76.1005
3.2800,76.1005
3.1257,76.0853
2.9276,76.0252
2.7451,75.9277
2.5852,75.7964
2.4539,75.6364
2.3564,75.4540
2.2963,75.2559
2.2760,75.0500
2.2963,74.8441
2.3564,74.6460
2.4539,74.4635
2.4539,74.4635
2.5852,74.3036
2.5852,74.3036
2.7451,74.1723
2.9276,74.0748
3.1257,74.0147
3.2800,73.9995
5.7832,73.9995
5.7832,73.9995
5.9375,74.0147
6.1356,74.0748
6.3181,74.1723
6.4780,74.3036
6.4780,74.3036
6.6093,74.4635
6.7068,74.6460
6.7669,74.8441
6.7872,75.0500
48.5628,75.0500
48.5641,75.0479
48.7687,74.8006
49.0026,74.5809
49.0026,74.5809
49.2623,74.3923
49.2623,74.3923
49.5435,74.2377
49.5435,74.2377
49.8419,74.1195
49.8419,74.1195
50.1527,74.0397
50.2437,74.0282
50.4711,73.9995
50.7921,73.9995
50.9911,74.0246
51.1105,74.0397
51.4213,74.1195
51.4213,74.1195
51.7197,74.2377
51.7197,74.2377
52.0009,74.3923
52.0009,74.3923
52.2606,74.5809
52.2606,74.5809
52.4945,74.8006
52.6991,75.0479
52.8710,75.3189
52.8710,75.3189
53.0077,75.6092
53.1069,75.9145
53.1069,75.9145
53.1670,76.2297
53.1670,76.2297
53.1871,76.5500
56.9032,76.5500
57.0815,76.3224
57.0815,76.3224
57.0815,76.3224
57.3040,76.0999
57.3040,76.0999
57.3040,76.0999
57.5516,75.9059
57.8209,75.7432
58.1078,75.6140
58.4081,75.5205
58.4081,75.5205
58.4081,75.5205
58.4081,75.5204
58.4081,75.5204
58.7176,75.4637
58.7176,75.4637
58.7176,75.4637
59.0316,75.4447
59.3456,75.4637
59.3456,75.4637
59.3456,75.4637
59.6551,75.5204
59.6551,75.5205
59.9554,75.6140
60.2423,75.7432
60.5116,75.9059
60.7592,76.0999
60.9817,76.3224
61.1757,76.5700
61.3384,76.8393
61.4676,77.1262
61.5611,77.4265
61.5612,77.4265
61.6179,77.7360
61.6179,77.7360
61.6179,77.7360
61.6369,78.0500
93.5311,78.0500
93.5311,75.0500
91.7872,75.0500
91.7669,75.2559
91.7068,75.4540
91.6093,75.6365
91.4780,75.7964
91.4780,75.7964
91.3181,75.9277
91.3181,75.9277
91.3180,75.9277
91.1356,76.0252
91.0238,76.0591
90.9375,76.0853
90.9223,76.0868
90.7832,76.1005
90.7832,76.1005
88.2800,76.1005
88.2800,76.1005
88.1257,76.0853
87.9276,76.0252
87.7451,75.9277
87.5852,75.7964
87.4539,75.6364
87.3564,75.4540
87.2963,75.2559
87.2760,75.0500
87.2963,74.8441
87.3564,74.6460
87.4539,74.4635
87.4539,74.4635
87.5852,74.3036
87.5852,74.3036
87.7451,74.1723
87.9276,74.0748
88.1257,74.0147
88.2800,73.9995
90.7832,73.9995
90.7832,73.9995
90.9375,74.0147
91.1356,74.0748
91.3181,74.1723
91.4780,74.3036
91.4780,74.3036
91.6093,74.4635
91.7068,74.6460
91.7669,74.8441
91.7872,75.0500
93.5311,75.0500
93.5311,71.0500
85.6369,71.0500
85.6179,71.3640
85.5612,71.6735
85.5611,71.6735
85.4676,71.9738
85.3384,72.2607
85.1757,72.5300
84.9817,72.7776
84.9817,72.7776
84.9817,72.7776
84.7592,73.0001
84.7592,73.0001
84.7592,73.0001
84.5116,73.1941
84.2423,73.3568
84.2423,73.3568
84.2423,73.3568
83.9554,73.4860
83.9554,73.4860
83.9554,73.4860
83.6551,73.5795
83.6551,73.5795
83.6551,73.5795
83.4383,73.6193
83.3456,73.6363
83.3456,73.6363
83.3456,73.6363
83.0316,73.6553
82.7176,73.6363
82.4081,73.5795
82.1078,73.4860
81.8209,73.3568
81.5516,73.1941
81.3040,73.0001
81.0815,72.7776
80.8875,72.5300
80.7248,72.2607
80.5956,71.9738
80.5021,71.6735
80.4453,71.3640
80.4263,71.0500
80.4453,70.7360
80.5021,70.4265
80.5956,70.1262
80.7248,69.8393
80.8875,69.5700
81.0815,69.3224
81.0815,69.3224
81.0815,69.3224
81.3040,69.0999
81.3040,69.0999
81.3040,69.0999
81.3677,69.0500
73.5316,69.0500
73.3783,70.2147
72.9287,71.3000
72.2136,72.2320
71.2816,72.9471
71.2816,72.9471
70.1963,73.3967
70.0430,73.4169
69.0316,73.5500
67.8669,73.3967
66.7816,72.9471
65.8496,72.2320
65.1345,71.3000
64.6849,70.2147
64.5316,69.0500
29.5316,69.0500
29.3783,70.2147
28.9287,71.3000
28.2136,72.2320
27.2816,72.9471
27.2816,72.9471
26.1963,73.3967
26.0430,73.4169
25.0316,73.5500
23.8669,73.3967
22.7816,72.9471
21.8496,72.2320
21.1345,71.3000
21.0309,71.0500
13.6369,71.0500
13.6179,71.3640
13.5612,71.6735
13.5611,71.6735
13.4676,71.9738
13.3384,72.2607
13.1757,72.5300
12.9817,72.7776
12.9817,72.7776
12.9817,72.7776
12.7592,73.0001
12.7592,73.0001
12.7592,73.0001
12.5116,73.1941
12.2423,73.3568
12.2423,73.3568
12.2423,73.3568
11.9554,73.4860
11.9554,73.4860
11.9554,73.4860
11.6551,73.5795
11.6551,73.5795
11.6551,73.5795
11.4383,73.6193
11.3456,73.6363
11.3456,73.6363
11.3456,73.6363
11.0316,73.6553
10.7176,73.6363
10.4081,73.5795
10.1078,73.4860
9.8209,73.3568
9.5516,73.1941
9.3040,73.0001
9.0815,72.7776
8.8875,72.5300
8.7248,72.2607
8.5956,71.9738
8.5021,71.6735
8.4453,71.3640
8.4263,71.0500
8.4453,70.7360
8.5021,70.4265
8.5956,70.1262
8.7248,69.8393
8.8875,69.5700
9.0815,69.3224
9.0815,69.3224
9.0815,69.3224
9.3040,69.0999
9.3040,69.0999
9.3040,69.0999
9.5516,68.9059
9.8209,68.7432
10.1078,68.6140
10.4081,68.5205
10.4081,68.5205
10.4081,68.5205
10.4081,68.5204
10.4081,68.5204
10.7176,68.4637
10.7176,68.4637
10.7176,68.4637
11.0316,68.4447
11.3456,68.4637
11.3456,68.4637
11.3456,68.4637
11.6551,68.5204
11.6551,68.5205
11.9554,68.6140
12.2423,68.7432
12.5116,68.9059
12.7592,69.0999
12.9817,69.3224
13.1757,69.5700
13.3384,69.8393
13.4676,70.1262
13.5611,70.4265
13.5612,70.4265
13.6179,70.7360
13.6369,71.0500
21.0309,71.0500
20.6849,70.2147
20.5316,69.0500
20.6849,67.8853
21.1345,66.8000
21.8496,65.8680
22.7816,65.1529
23.8669,64.7033
24.8961,64.5678
25.0316,64.5500
25.0316,64.5500
26.1963,64.7033
27.2816,65.1529
28.2136,65.8680
28.2136,65.8680
28.9287,66.8000
29.3783,67.8853
29.5316,69.0500
64.5316,69.0500
64.6849,67.8853
65.1345,66.8000
65.8496,65.8680
66.7816,65.1529
67.8669,64.7033
68.8961,64.5678
69.0316,64.5500
69.0316,64.5500
70.1963,64.7033
71.2816,65.1529
72.2136,65.8680
72.2136,65.8680
72.9287,66.8000
73.3783,67.8853
73.5316,69.0500
81.3677,69.0500
81.5516,68.9059
81.8209,68.7432
82.1078,68.6140
82.4081,68.5205
82.4081,68.5205
82.4081,68.5205
82.4081,68.5204
82.4081,68.5204
82.7176,68.4637
82.7176,68.4637
82.7176,68.4637
83.0316,68.4447
83.3456,68.4637
83.3456,68.4637
83.3456,68.4637
83.6551,68.5204
83.6551,68.5205
83.9554,68.6140
84.2423,68.7432
84.5116,68.9059
84.7592,69.0999
84.9817,69.3224
85.1757,69.5700
85.3384,69.8393
85.4676,70.1262
85.5611,70.4265
85.5612,70.4265
85.6179,70.7360
85.6369,71.0500
93.5311,71.0500
93.5311,62.3000
65.8816,62.3000
65.7589,63.2317
65.3993,64.1000
65.3993,64.1000
65.3993,64.1000
64.8272,64.8456
64.0816,65.4177
64.0816,65.4177
63.2133,65.7773
63.0907,65.7935
62.2816,65.9000
61.3499,65.7773
60.4816,65.4177
59.7360,64.8456
59.1639,64.1000
58.8043,63.2317
58.6816,62.3000
58.6816,62.3000
35.3816,62.3000
35.2589,63.2317
34.8993,64.1000
34.8993,64.1000
34.8993,64.1000
34.3272,64.8456
33.9267,65.1529
33.5816,65.4177
33.5816,65.4177
32.7133,65.7773
32.5907,65.7935
31.7816,65.9000
30.8499,65.7773
29.9816,65.4177
29.2360,64.8456
28.6639,64.1000
28.3043,63.2317
28.1816,62.3000
28.3043,61.3683
28.5411,60.7964
28.6639,60.5000
28.6639,60.5000
29.0092,60.0500
6.7872,60.0500
6.7669,60.2559
6.7068,60.4540
6.6093,60.6365
6.4780,60.7964
6.4780,60.7964
6.3181,60.9277
6.3181,60.9277
6.3180,60.9277
6.1356,61.0252
6.0238,61.0591
5.9375,61.0853
5.9223,61.0868
5.7832,61.1005
5.7832,61.1005
3.2800,61.1005
3.2800,61.1005
3.1257,61.0853
2.9276,61.0252
2.7451,60.9277
2.5852,60.7964
2.4539,60.6364
2.3564,60.4540
2.2963,60.2559
2.2760,60.0500
2.2963,59.8441
2.3564,59.6460
2.4539,59.4635
2.4539,59.4635
2.5852,59.3036
2.5852,59.3036
2.7451,59.1723
2.9276,59.0748
3.1257,59.0147
3.2800,58.9995
5.7832,58.9995
5.7832,58.9995
5.9375,59.0147
6.1356,59.0748
6.3181,59.1723
6.4780,59.3036
6.4780,59.3036
6.6093,59.4635
6.7068,59.6460
6.7669,59.8441
6.7872,60.0500
29.0092,60.0500
29.2360,59.7544
29.9816,59.1823
29.9816,59.1823
29.9816,59.1823
30.8499,58.8227
31.6732,58.7143
31.7816,58.7000
31.7816,58.7000
32.7133,58.8227
33.5816,59.1823
33.5816,59.1823
34.3272,59.7544
34.3272,59.7544
34.8993,60.5000
34.8993,60.5000
35.2589,61.3682
35.3816,62.3000
58.6816,62.3000
58.8043,61.3683
59.0411,60.7964
59.1639,60.5000
59.1639,60.5000
59.5092,60.0500
59.7360,59.7544
60.4816,59.1823
60.4816,59.1823
60.4816,59.1823
61.3499,58.8227
62.1732,58.7143
62.2816,58.7000
62.2816,58.7000
63.2133,58.8227
64.0816,59.1823
64.0816,59.1823
64.8272,59.7544
64.8272,59.7544
65.3993,60.5000
65.3993,60.5000
65.7589,61.3682
65.8816,62.3000
93.5311,62.3000
93.5311,60.0500
91.7872,60.0500
91.7669,60.2559
91.7068,60.4540
91.6093,60.6365
91.4780,60.7964
91.4780,60.7964
91.3181,60.9277
91.3181,60.9277
91.3180,60.9277
91.1356,61.0252
91.0238,61.0591
90.9375,61.0853
90.9223,61.0868
90.7832,61.1005
90.7832,61.1005
88.2800,61.1005
88.2800,61.1005
88.1257,61.0853
87.9276,61.0252
87.7451,60.9277
87.5852,60.7964
87.4539,60.6364
87.3564,60.4540
87.2963,60.2559
87.2760,60.0500
87.2963,59.8441
87.3564,59.6460
87.4539,59.4635
87.4539,59.4635
87.5852,59.3036
87.5852,59.3036
87.7451,59.1723
87.9276,59.0748
88.1257,59.0147
88.2800,58.9995
90.7832,58.9995
90.7832,58.9995
90.9375,59.0147
91.1356,59.0748
91.3181,59.1723
91.4780,59.3036
91.4780,59.3036
91.6093,59.4635
91.7068,59.6460
91.7669,59.8441
91.7872,60.0500
93.5311,60.0500
93.5311,50.7979
86.2321,50.7979
86.2321,50.7979
86.2300,50.8171
86.2257,50.8575
86.2257,50.8575
86.1754,50.9923
86.0891,51.1075
85.9739,51.1938
85.8391,51.2441
85.7795,51.2505
83.2837,51.2505
83.2241,51.2441
83.0893,51.1938
82.9741,51.1075
82.8878,50.9923
82.8375,50.8575
82.8311,50.7979
82.8311,50.7979
11.2321,50.7979
11.2321,50.7979
11.2300,50.8171
11.2257,50.8575
11.2257,50.8575
11.1754,50.9923
11.0891,51.1075
10.9739,51.1938
10.8391,51.2441
10.7795,51.2505
8.2837,51.2505
8.2241,51.2441
8.0893,51.1938
7.9741,51.1075
7.8878,50.9923
7.8375,50.8575
7.8311,50.7979
7.8311,48.3021
7.8375,48.2425
7.8878,48.1077
7.9741,47.9925
8.0893,47.9062
8.1695,47.8763
8.2241,47.8559
8.2837,47.8495
10.7795,47.8495
10.7795,47.8495
10.7795,47.8495
10.7923,47.8509
10.8391,47.8559
10.8391,47.8559
10.9739,47.9062
11.0891,47.9925
11.0891,47.9925
11.1754,48.1077
11.2257,48.2425
11.2321,48.3021
11.2321,50.7979
11.2321,50.7979
82.8311,50.7979
82.8311,48.3021
82.8375,48.2425
82.8878,48.1077
82.9741,47.9925
83.0893,47.9062
83.1695,47.8763
83.2241,47.8559
83.2837,47.8495
85.7795,47.8495
85.7795,47.8495
85.7795,47.8495
85.7923,47.8509
85.8391,47.8559
85.8391,47.8559
85.9739,47.9062
86.0891,47.9925
86.0891,47.9925
86.1754,48.1077
86.2257,48.2425
86.2321,48.3021
86.2321,50.7979
86.2321,50.7979
93.5311,50.7979
93.5311,34.0500
91.7872,34.0500
91.7669,34.2559
91.7068,34.4540
91.6093,34.6365
91.4780,34.7964
91.4780,34.7964
91.3181,34.9277
91.3181,34.9277
91.3180,34.9277
91.1356,35.0252
91.0238,35.0591
90.9375,35.0853
90.9223,35.0868
90.7832,35.1005
90.7832,35.1005
88.2800,35.1005
88.2800,35.1005
88.1257,35.0853
87.9276,35.0252
87.7451,34.9277
87.5852,34.7964
87.4539,34.6364
87.3564,34.4540
87.2963,34.2559
87.2760,34.0500
87.2963,33.8441
87.3564,33.6460
87.4539,33.4635
87.4539,33.4635
87.5852,33.3036
87.5852,33.3036
87.7451,33.1723
87.9276,33.0748
88.1257,33.0147
88.2800,32.9995
90.7832,32.9995
90.7832,32.9995
90.9375,33.0147
91.1356,33.0748
91.3181,33.1723
91.4780,33.3036
91.4780,33.3036
91.6093,33.4635
91.7068,33.6460
91.7669,33.8441
91.7872,34.0500
93.5311,34.0500
93.5311,31.8000
65.8816,31.8000
65.7589,32.7317
65.3993,33.6000
65.3993,33.6000
65.1503,33.9245
64.8272,34.3456
64.0816,34.9177
64.0816,34.9177
63.2133,35.2773
63.0907,35.2935
62.2816,35.4000
61.3499,35.2773
60.4816,34.9177
59.7360,34.3456
59.1639,33.6000
58.8043,32.7317
58.6816,31.8000
58.6816,31.8000
35.3816,31.8000
35.2589,32.7317
34.8993,33.6000
34.8993,33.6000
34.6503,33.9245
34.3272,34.3456
33.7396,34.7964
33.5816,34.9177
33.5816,34.9177
32.7133,35.2773
32.5907,35.2935
31.7816,35.4000
30.8499,35.2773
29.9816,34.9177
29.2360,34.3456
29.0092,34.0500
6.7872,34.0500
6.7669,34.2559
6.7068,34.4540
6.6093,34.6365
6.4780,34.7964
6.4780,34.7964
6.3181,34.9277
6.3181,34.9277
6.3180,34.9277
6.1356,35.0252
6.0238,35.0591
5.9375,35.0853
5.9223,35.0868
5.7832,35.1005
5.7832,35.1005
3.2800,35.1005
3.2800,35.1005
3.1257,35.0853
2.9276,35.0252
2.7451,34.9277
2.5852,34.7964
2.4539,34.6364
2.3564,34.4540
2.2963,34.2559
2.2760,34.0500
2.2963,33.8441
2.3564,33.6460
2.4539,33.4635
2.4539,33.4635
2.5852,33.3036
2.5852,33.3036
2.7451,33.1723
2.9276,33.0748
3.1257,33.0147
3.2800,32.9995
5.7832,32.9995
5.7832,32.9995
5.9375,33.0147
6.1356,33.0748
6.3181,33.1723
6.4780,33.3036
6.4780,33.3036
6.6093,33.4635
6.7068,33.6460
6.7669,33.8441
6.7872,34.0500
29.0092,34.0500
28.6639,33.6000
28.3043,32.7317
28.1816,31.8000
28.3043,30.8683
28.6639,30.0000
29.2360,29.2544
29.9816,28.6823
29.9816,28.6823
29.9816,28.6823
30.8499,28.3227
31.6732,28.2143
31.7816,28.2000
31.7816,28.2000
32.7133,28.3227
33.5816,28.6823
33.5816,28.6823
34.3272,29.2544
34.3272,29.2544
34.8993,30.0000
34.8993,30.0000
35.2589,30.8682
35.3816,31.8000
58.6816,31.8000
58.8043,30.8683
59.1639,30.0000
59.7360,29.2544
60.4816,28.6823
60.4816,28.6823
60.4816,28.6823
61.3499,28.3227
62.1732,28.2143
62.2816,28.2000
62.2816,28.2000
63.2133,28.3227
64.0816,28.6823
64.0816,28.6823
64.8272,29.2544
64.8272,29.2544
65.3993,30.0000
65.3993,30.0000
65.7589,30.8682
65.8816,31.8000
93.5311,31.8000
93.5311,23.0500
85.6369,23.0500
85.6179,23.3640
85.5612,23.6735
85.5611,23.6735
85.4676,23.9738
85.3384,24.2607
85.1757,24.5300
84.9817,24.7776
84.9817,24.7776
84.9817,24.7776
84.7592,25.0001
84.7592,25.0001
84.7592,25.0001
84.5116,25.1941
84.2423,25.3568
84.2423,25.3568
84.2423,25.3568
83.9554,25.4860
83.9554,25.4860
83.9554,25.4860
83.6551,25.5795
83.6551,25.5795
83.6551,25.5795
83.4383,25.6193
83.3456,25.6363
83.3456,25.6363
83.3456,25.6363
83.0316,25.6553
82.7176,25.6363
82.4081,25.5795
82.1078,25.4860
81.8209,25.3568
81.5516,25.1941
81.3677,25.0500
73.5316,25.0500
73.3783,26.2147
72.9287,27.3000
72.2136,28.2320
71.2816,28.9471
71.2816,28.9471
70.1963,29.3967
70.0430,29.4169
69.0316,29.5500
67.8669,29.3967
66.7816,28.9471
65.8496,28.2320
65.1345,27.3000
64.6849,26.2147
64.5316,25.0500
29.5316,25.0500
29.3783,26.2147
28.9287,27.3000
28.2136,28.2320
27.2816,28.9471
27.2816,28.9471
26.1963,29.3967
26.0430,29.4169
25.0316,29.5500
23.8669,29.3967
22.7816,28.9471
21.8496,28.2320
21.1345,27.3000
20.6849,26.2147
20.5316,25.0500
20.6733,23.9738
20.6849,23.8853
21.0309,23.0500
13.6369,23.0500
13.6179,23.3640
13.5612,23.6735
13.5611,23.6735
13.4676,23.9738
13.3384,24.2607
13.1757,24.5300
12.9817,24.7776
12.9817,24.7776
12.9817,24.7776
12.7592,25.0001
12.7592,25.0001
12.7592,25.0001
12.5116,25.1941
12.2423,25.3568
12.2423,25.3568
12.2423,25.3568
11.9554,25.4860
11.9554,25.4860
11.9554,25.4860
11.6551,25.5795
11.6551,25.5795
11.6551,25.5795
11.4383,25.6193
11.3456,25.6363
11.3456,25.6363
11.3456,25.6363
11.0316,25.6553
10.7176,25.6363
10.4081,25.5795
10.1078,25.4860
9.8209,25.3568
9.5516,25.1941
9.3040,25.0001
9.0815,24.7776
8.8875,24.5300
8.7248,24.2607
8.5956,23.9738
8.5021,23.6735
8.4453,23.3640
8.4263,23.0500
8.4453,22.7360
8.5021,22.4265
8.5956,22.1262
8.7248,21.8393
8.8875,21.5700
9.0815,21.3224
9.0815,21.3224
9.0815,21.3224
9.3040,21.0999
9.3040,21.0999
9.3040,21.0999
9.5516,20.9059
9.8209,20.7432
10.1078,20.6140
10.4081,20.5205
10.4081,20.5205
10.4081,20.5205
10.4081,20.5205
10.4081,20.5204
10.7176,20.4637
10.7176,20.4637
10.7176,20.4637
11.0316,20.4447
11.3456,20.4637
11.3456,20.4637
11.3456,20.4637
11.6551,20.5204
11.6551,20.5205
11.9554,20.6140
12.2423,20.7432
12.5116,20.9059
12.7592,21.0999
12.9817,21.3224
13.1757,21.5700
13.3384,21.8393
13.4676,22.1262
13.5611,22.4265
13.5612,22.4265
13.6179,22.7360
13.6369,23.0500
21.0309,23.0500
21.1345,22.8000
21.8496,21.8680
22.7816,21.1529
23.8669,20.7033
24.7592,20.5859
25.0212,20.5514
25.0304,20.5483
25.0420,20.5514
25.2805,20.5828
26.1963,20.7033
27.2816,21.1529
28.2136,21.8680
28.2136,21.8680
28.9287,22.8000
29.3783,23.8853
29.5316,25.0500
64.5316,25.0500
64.6733,23.9738
64.6849,23.8853
65.0309,23.0500
65.1345,22.8000
65.8496,21.8680
66.7816,21.1529
67.8669,20.7033
68.7592,20.5859
69.0212,20.5514
69.0304,20.5483
69.0420,20.5514
69.2805,20.5828
70.1963,20.7033
71.2816,21.1529
72.2136,21.8680
72.2136,21.8680
72.9287,22.8000
73.3783,23.8853
73.5316,25.0500
81.3677,25.0500
81.3040,25.0001
81.0815,24.7776
80.8875,24.5300
80.7248,24.2607
80.5956,23.9738
80.5021,23.6735
80.4453,23.3640
80.4263,23.0500
80.4453,22.7360
80.5021,22.4265
80.5956,22.1262
80.7248,21.8393
80.8875,21.5700
81.0815,21.3224
81.0815,21.3224
81.0815,21.3224
81.3040,21.0999
81.3040,21.0999
81.3040,21.0999
81.5516,20.9059
81.8209,20.7432
82.1078,20.6140
82.4081,20.5205
82.4081,20.5205
82.4081,20.5205
82.4081,20.5205
82.4081,20.5204
82.7176,20.4637
82.7176,20.4637
82.7176,20.4637
83.0316,20.4447
83.3456,20.4637
83.3456,20.4637
83.3456,20.4637
83.6551,20.5204
83.6551,20.5205
83.9554,20.6140
84.2423,20.7432
84.5116,20.9059
84.7592,21.0999
84.9817,21.3224
85.1757,21.5700
85.3384,21.8393
85.4676,22.1262
85.5611,22.4265
85.5612,22.4265
85.6179,22.7360
85.6369,23.0500
93.5311,23.0500
93.5311,19.0500
91.7872,19.0500
91.7669,19.2559
91.7068,19.4540
91.6093,19.6365
91.4780,19.7964
91.4780,19.7964
91.3181,19.9277
91.3181,19.9277
91.3180,19.9277
91.1356,20.0252
91.0238,20.0591
90.9375,20.0853
90.9223,20.0868
90.7832,20.1005
90.7832,20.1005
88.2800,20.1005
88.2800,20.1005
88.1257,20.0853
87.9276,20.0252
87.7451,19.9277
87.5852,19.7964
87.5536,19.7579
87.5306,19.7299
87.4539,19.6364
87.3564,19.4540
87.2963,19.2559
87.2760,19.0500
87.2963,18.8441
87.3564,18.6460
87.4539,18.4635
87.4539,18.4635
87.5852,18.3036
87.5852,18.3036
87.7451,18.1723
87.9276,18.0748
88.1257,18.0147
88.2800,17.9995
90.7832,17.9995
90.7832,17.9995
90.9375,18.0147
91.1356,18.0748
91.3181,18.1723
91.4780,18.3036
91.4780,18.3036
91.6093,18.4635
91.7068,18.6460
91.7669,18.8441
91.7872,19.0500
93.5311,19.0500
93.5311,4.0561
93.5308,4.0439
93.5214,3.8535
93.5148,3.7192
93.5125,3.6949
93.4657,3.3794
93.4609,3.3554
93.3834,3.0460
93.3763,3.0226
93.2688,2.7223
93.2595,2.6997
93.1231,2.4114
93.1116,2.3899
92.9476,2.1163
92.9341,2.0960
92.7440,1.8398
92.7285,1.8209
92.5143,1.5845
92.4971,1.5673
92.2607,1.3531
92.2418,1.3376
91.9856,1.1475
91.9653,1.1340
91.6917,0.9700
91.6702,0.9585
91.3819,0.8221
91.3593,0.8128
91.0590,0.7053
91.0356,0.6982
90.7262,0.6207
90.7022,0.6159
90.3867,0.5691
90.3624,0.5668
90.0516,0.5515
90.0377,0.5508
90.0255,0.5505
89.9657,0.5505
79.2861,0.5505
Z" /> 
</g>
</g>
</g>
<g style="fill:#FFFFFF; fill-opacity:1.0000; 
stroke:#FFFFFF; stroke-width:0.0000; stroke-opacity:1; 
stroke-linecap:round; stroke-linejoin:round;">
<circle cx="18.3066" cy="90.1000" r="0.2000" /> 
</g>
<g style="fill:#FFFFFF; fill-opacity:1.0000; 
stroke:#FFFFFF; stroke-width:0.0212; stroke-opacity:1; 
stroke-linecap:round; stroke-linejoin:round;">
</g>
<g style="fill:#FFFFFF; fill-opacity:1.0000; 
stroke:#FFFFFF; stroke-width:1.6000; stroke-opacity:1; 
stroke-linecap:round; stroke-linejoin:round;">
</g>
<g style="fill:#FFFFFF; fill-opacity:0.0; 
stroke:#FFFFFF; stroke-width:1.6000; stroke-opacity:1; 
stroke-linecap:round; stroke-linejoin:round;">
<path d="M90.7316 34.0500
L88.3316 34.0500
" />
</g>
<g style="fill:#FFFFFF; fill-opacity:0.0; 
stroke:#FFFFFF; stroke-width:0.6000; stroke-opacity:1; 
stroke-linecap:round; stroke-linejoin:round;">
<path d="M40.2816 83.1000
L40.2816 82.0000
" />
<path d="M53.7816 83.1000
L53.7816 82.0000
" />
</g>
<g style="fill:#FFFFFF; fill-opacity:1.0000; 
stroke:#FFFFFF; stroke-width:0.0000; stroke-opacity:1; 
stroke-linecap:round; stroke-linejoin:round;">
<circle cx="43.4316" cy="76.5500" r="1.3500" /> 
</g>
<g style="fill:#FFFFFF; fill-opacity:1.0000; 
stroke:#FFFFFF; stroke-width:0.0212; stroke-opacity:1; 
stroke-linecap:round; stroke-linejoin:round;">
</g>
<g style="fill:#FFFFFF; fill-opacity:1.0000; 
stroke:#FFFFFF; stroke-width:0.0000; stroke-opacity:1; 
stroke-linecap:round; stroke-linejoin:round;">
<circle cx="50.6316" cy="76.5500" r="1.3500" /> 
</g>
<g style="fill:#FFFFFF; fill-opacity:1.0000; 
stroke:#FFFFFF; stroke-width:0.0212; stroke-opacity:1; 
stroke-linecap:round; stroke-linejoin:round;">
</g>
<g style="fill:#FFFFFF; fill-opacity:1.0000; 
stroke:#FFFFFF; stroke-width:0.0000; stroke-opacity:1; 
stroke-linecap:round; stroke-linejoin:round;">
<circle cx="84.5316" cy="49.5500" r="0.6000" /> 
</g>
<g style="fill:#FFFFFF; fill-opacity:1.0000; 
stroke:#FFFFFF; stroke-width:0.0212; stroke-opacity:1; 
stroke-linecap:round; stroke-linejoin:round;">
</g>
<g style="fill:#FFFFFF; fill-opacity:1.0000; 
stroke:#FFFFFF; stroke-width:0.0000; stroke-opacity:1; 
stroke-linecap:round; stroke-linejoin:round;">
<circle cx="84.5316" cy="44.5500" r="0.6000" /> 
</g>
<g style="fill:#FFFFFF; fill-opacity:1.0000; 
stroke:#FFFFFF; stroke-width:0.0212; stroke-opacity:1; 
stroke-linecap:round; stroke-linejoin:round;">
</g>
<g style="fill:#FFFFFF; fill-opacity:1.0000; 
stroke:#FFFFFF; stroke-width:0.0000; stroke-opacity:1; 
stroke-linecap:round; stroke-linejoin:round;">
<circle cx="69.0316" cy="69.0500" r="1.6000" /> 
</g>
<g style="fill:#FFFFFF; fill-opacity:1.0000; 
stroke:#FFFFFF; stroke-width:0.0212; stroke-opacity:1; 
stroke-linecap:round; stroke-linejoin:round;">
</g>
<g style="fill:#FFFFFF; fill-opacity:1.0000; 
stroke:#FFFFFF; stroke-width:0.0000; stroke-opacity:1; 
stroke-linecap:round; stroke-linejoin:round;">
<circle cx="26.5316" cy="92.3500" r="0.5000" /> 
</g>
<g style="fill:#FFFFFF; fill-opacity:1.0000; 
stroke:#FFFFFF; stroke-width:0.0212; stroke-opacity:1; 
stroke-linecap:round; stroke-linejoin:round;">
</g>
<g style="fill:#FFFFFF; fill-opacity:1.0000; 
stroke:#FFFFFF; stroke-width:0.0000; stroke-opacity:1; 
stroke-linecap:round; stroke-linejoin:round;">
<circle cx="23.9916" cy="92.3500" r="0.5000" /> 
</g>
<g style="fill:#FFFFFF; fill-opacity:1.0000; 
stroke:#FFFFFF; stroke-width:0.0212; stroke-opacity:1; 
stroke-linecap:round; stroke-linejoin:round;">
</g>
<g style="fill:#FFFFFF; fill-opacity:1.0000; 
stroke:#FFFFFF; stroke-width:0.0000; stroke-opacity:1; 
stroke-linecap:round; stroke-linejoin:round;">
<circle cx="83.0316" cy="23.0500" r="1.0500" /> 
</g>
<g style="fill:#FFFFFF; fill-opacity:1.0000; 
stroke:#FFFFFF; stroke-width:0.0212; stroke-opacity:1; 
stroke-linecap:round; stroke-linejoin:round;">
</g>
<g style="fill:#FFFFFF; fill-opacity:1.0000; 
stroke:#FFFFFF; stroke-width:0.0000; stroke-opacity:1; 
stroke-linecap:round; stroke-linejoin:round;">
<circle cx="83.0316" cy="30.0500" r="1.0500" /> 
</g>
<g style="fill:#FFFFFF; fill-opacity:1.0000; 
stroke:#FFFFFF; stroke-width:0.0212; stroke-opacity:1; 
stroke-linecap:round; stroke-linejoin:round;">
</g>
<g style="fill:#FFFFFF; fill-opacity:1.0000; 
stroke:#FFFFFF; stroke-width:0.0000; stroke-opacity:1; 
stroke-linecap:round; stroke-linejoin:round;">
<circle cx="11.0316" cy="71.0500" r="1.0500" /> 
</g>
<g style="fill:#FFFFFF; fill-opacity:1.0000; 
stroke:#FFFFFF; stroke-width:0.0212; stroke-opacity:1; 
stroke-linecap:round; stroke-linejoin:round;">
</g>
<g style="fill:#FFFFFF; fill-opacity:1.0000; 
stroke:#FFFFFF; stroke-width:1.6000; stroke-opacity:1; 
stroke-linecap:round; stroke-linejoin:round;">
</g>
<g style="fill:#FFFFFF; fill-opacity:0.0; 
stroke:#FFFFFF; stroke-width:1.6000; stroke-opacity:1; 
stroke-linecap:round; stroke-linejoin:round;">
<path d="M90.7316 60.0500
L88.3316 60.0500
" />
<path d="M5.7316 19.0500
L3.3316 19.0500
" />
</g>
<g style="fill:#FFFFFF; fill-opacity:1.0000; 
stroke:#FFFFFF; stroke-width:0.0000; stroke-opacity:1; 
stroke-linecap:round; stroke-linejoin:round;">
<circle cx="25.0316" cy="25.0500" r="1.6000" /> 
</g>
<g style="fill:#FFFFFF; fill-opacity:1.0000; 
stroke:#FFFFFF; stroke-width:0.0212; stroke-opacity:1; 
stroke-linecap:round; stroke-linejoin:round;">
</g>
<g style="fill:#FFFFFF; fill-opacity:1.0000; 
stroke:#FFFFFF; stroke-width:0.0000; stroke-opacity:1; 
stroke-linecap:round; stroke-linejoin:round;">
<circle cx="9.5316" cy="49.5500" r="0.6000" /> 
</g>
<g style="fill:#FFFFFF; fill-opacity:1.0000; 
stroke:#FFFFFF; stroke-width:0.0212; stroke-opacity:1; 
stroke-linecap:round; stroke-linejoin:round;">
</g>
<g style="fill:#FFFFFF; fill-opacity:1.0000; 
stroke:#FFFFFF; stroke-width:0.0000; stroke-opacity:1; 
stroke-linecap:round; stroke-linejoin:round;">
<circle cx="9.5316" cy="44.5500" r="0.6000" /> 
</g>
<g style="fill:#FFFFFF; fill-opacity:1.0000; 
stroke:#FFFFFF; stroke-width:0.0212; stroke-opacity:1; 
stroke-linecap:round; stroke-linejoin:round;">
</g>
<g style="fill:#FFFFFF; fill-opacity:1.0000; 
stroke:#FFFFFF; stroke-width:0.0000; stroke-opacity:1; 
stroke-linecap:round; stroke-linejoin:round;">
<circle cx="11.0316" cy="30.0500" r="1.0500" /> 
</g>
<g style="fill:#FFFFFF; fill-opacity:1.0000; 
stroke:#FFFFFF; stroke-width:0.0212; stroke-opacity:1; 
stroke-linecap:round; stroke-linejoin:round;">
</g>
<g style="fill:#FFFFFF; fill-opacity:1.0000; 
stroke:#FFFFFF; stroke-width:1.6000; stroke-opacity:1; 
stroke-linecap:round; stroke-linejoin:round;">
</g>
<g style="fill:#FFFFFF; fill-opacity:0.0; 
stroke:#FFFFFF; stroke-width:1.6000; stroke-opacity:1; 
stroke-linecap:round; stroke-linejoin:round;">
<path d="M90.7316 19.0500
L88.3316 19.0500
" />
<path d="M5.7316 75.0500
L3.3316 75.0500
" />
</g>
<g style="fill:#FFFFFF; fill-opacity:1.0000; 
stroke:#FFFFFF; stroke-width:0.0000; stroke-opacity:1; 
stroke-linecap:round; stroke-linejoin:round;">
<circle cx="11.0316" cy="64.0500" r="1.0500" /> 
</g>
<g style="fill:#FFFFFF; fill-opacity:1.0000; 
stroke:#FFFFFF; stroke-width:0.0212; stroke-opacity:1; 
stroke-linecap:round; stroke-linejoin:round;">
</g>
<g style="fill:#FFFFFF; fill-opacity:1.0000; 
stroke:#FFFFFF; stroke-width:0.0000; stroke-opacity:1; 
stroke-linecap:round; stroke-linejoin:round;">
<circle cx="50.8416" cy="13.5500" r="0.5000" /> 
</g>
<g style="fill:#FFFFFF; fill-opacity:1.0000; 
stroke:#FFFFFF; stroke-width:0.0212; stroke-opacity:1; 
stroke-linecap:round; stroke-linejoin:round;">
</g>
<g style="fill:#FFFFFF; fill-opacity:1.0000; 
stroke:#FFFFFF; stroke-width:0.0000; stroke-opacity:1; 
stroke-linecap:round; stroke-linejoin:round;">
<circle cx="48.3016" cy="13.5500" r="0.5000" /> 
</g>
<g style="fill:#FFFFFF; fill-opacity:1.0000; 
stroke:#FFFFFF; stroke-width:0.0212; stroke-opacity:1; 
stroke-linecap:round; stroke-linejoin:round;">
</g>
<g style="fill:#FFFFFF; fill-opacity:1.0000; 
stroke:#FFFFFF; stroke-width:0.0000; stroke-opacity:1; 
stroke-linecap:round; stroke-linejoin:round;">
<circle cx="45.7616" cy="13.5500" r="0.5000" /> 
</g>
<g style="fill:#FFFFFF; fill-opacity:1.0000; 
stroke:#FFFFFF; stroke-width:0.0212; stroke-opacity:1; 
stroke-linecap:round; stroke-linejoin:round;">
</g>
<g style="fill:#FFFFFF; fill-opacity:1.0000; 
stroke:#FFFFFF; stroke-width:0.0000; stroke-opacity:1; 
stroke-linecap:round; stroke-linejoin:round;">
<circle cx="43.2216" cy="13.5500" r="0.5000" /> 
</g>
<g style="fill:#FFFFFF; fill-opacity:1.0000; 
stroke:#FFFFFF; stroke-width:0.0212; stroke-opacity:1; 
stroke-linecap:round; stroke-linejoin:round;">
</g>
<g style="fill:#FFFFFF; fill-opacity:1.0000; 
stroke:#FFFFFF; stroke-width:0.0000; stroke-opacity:1; 
stroke-linecap:round; stroke-linejoin:round;">
<circle cx="40.6816" cy="13.5500" r="0.5000" /> 
</g>
<g style="fill:#FFFFFF; fill-opacity:1.0000; 
stroke:#FFFFFF; stroke-width:0.0212; stroke-opacity:1; 
stroke-linecap:round; stroke-linejoin:round;">
</g>
<g style="fill:#FFFFFF; fill-opacity:1.0000; 
stroke:#FFFFFF; stroke-width:0.0000; stroke-opacity:1; 
stroke-linecap:round; stroke-linejoin:round;">
<circle cx="62.2816" cy="62.3000" r="1.6000" /> 
</g>
<g style="fill:#FFFFFF; fill-opacity:1.0000; 
stroke:#FFFFFF; stroke-width:0.0212; stroke-opacity:1; 
stroke-linecap:round; stroke-linejoin:round;">
</g>
<g style="fill:#FFFFFF; fill-opacity:1.0000; 
stroke:#FFFFFF; stroke-width:0.0000; stroke-opacity:1; 
stroke-linecap:round; stroke-linejoin:round;">
<circle cx="69.0316" cy="25.0500" r="1.6000" /> 
</g>
<g style="fill:#FFFFFF; fill-opacity:1.0000; 
stroke:#FFFFFF; stroke-width:0.0212; stroke-opacity:1; 
stroke-linecap:round; stroke-linejoin:round;">
</g>
<g style="fill:#FFFFFF; fill-opacity:1.0000; 
stroke:#FFFFFF; stroke-width:0.0000; stroke-opacity:1; 
stroke-linecap:round; stroke-linejoin:round;">
<circle cx="35.0316" cy="78.0500" r="1.0500" /> 
</g>
<g style="fill:#FFFFFF; fill-opacity:1.0000; 
stroke:#FFFFFF; stroke-width:0.0212; stroke-opacity:1; 
stroke-linecap:round; stroke-linejoin:round;">
</g>
<g style="fill:#FFFFFF; fill-opacity:1.0000; 
stroke:#FFFFFF; stroke-width:0.0000; stroke-opacity:1; 
stroke-linecap:round; stroke-linejoin:round;">
<circle cx="43.2216" cy="7.6300" r="0.5000" /> 
</g>
<g style="fill:#FFFFFF; fill-opacity:1.0000; 
stroke:#FFFFFF; stroke-width:0.0212; stroke-opacity:1; 
stroke-linecap:round; stroke-linejoin:round;">
</g>
<g style="fill:#FFFFFF; fill-opacity:1.0000; 
stroke:#FFFFFF; stroke-width:0.0000; stroke-opacity:1; 
stroke-linecap:round; stroke-linejoin:round;">
<circle cx="43.2216" cy="5.0900" r="0.5000" /> 
</g>
<g style="fill:#FFFFFF; fill-opacity:1.0000; 
stroke:#FFFFFF; stroke-width:0.0212; stroke-opacity:1; 
stroke-linecap:round; stroke-linejoin:round;">
</g>
<g style="fill:#FFFFFF; fill-opacity:1.0000; 
stroke:#FFFFFF; stroke-width:0.0000; stroke-opacity:1; 
stroke-linecap:round; stroke-linejoin:round;">
<circle cx="43.2216" cy="2.5500" r="0.5000" /> 
</g>
<g style="fill:#FFFFFF; fill-opacity:1.0000; 
stroke:#FFFFFF; stroke-width:0.0212; stroke-opacity:1; 
stroke-linecap:round; stroke-linejoin:round;">
</g>
<g style="fill:#FFFFFF; fill-opacity:1.0000; 
stroke:#FFFFFF; stroke-width:0.0000; stroke-opacity:1; 
stroke-linecap:round; stroke-linejoin:round;">
<circle cx="45.7616" cy="7.6300" r="0.5000" /> 
</g>
<g style="fill:#FFFFFF; fill-opacity:1.0000; 
stroke:#FFFFFF; stroke-width:0.0212; stroke-opacity:1; 
stroke-linecap:round; stroke-linejoin:round;">
</g>
<g style="fill:#FFFFFF; fill-opacity:1.0000; 
stroke:#FFFFFF; stroke-width:0.0000; stroke-opacity:1; 
stroke-linecap:round; stroke-linejoin:round;">
<circle cx="45.7616" cy="5.0900" r="0.5000" /> 
</g>
<g style="fill:#FFFFFF; fill-opacity:1.0000; 
stroke:#FFFFFF; stroke-width:0.0212; stroke-opacity:1; 
stroke-linecap:round; stroke-linejoin:round;">
</g>
<g style="fill:#FFFFFF; fill-opacity:1.0000; 
stroke:#FFFFFF; stroke-width:0.0000; stroke-opacity:1; 
stroke-linecap:round; stroke-linejoin:round;">
<circle cx="45.7616" cy="2.5500" r="0.5000" /> 
</g>
<g style="fill:#FFFFFF; fill-opacity:1.0000; 
stroke:#FFFFFF; stroke-width:0.0212; stroke-opacity:1; 
stroke-linecap:round; stroke-linejoin:round;">
</g>
<g style="fill:#FFFFFF; fill-opacity:1.0000; 
stroke:#FFFFFF; stroke-width:0.0000; stroke-opacity:1; 
stroke-linecap:round; stroke-linejoin:round;">
<circle cx="48.3016" cy="7.6300" r="0.5000" /> 
</g>
<g style="fill:#FFFFFF; fill-opacity:1.0000; 
stroke:#FFFFFF; stroke-width:0.0212; stroke-opacity:1; 
stroke-linecap:round; stroke-linejoin:round;">
</g>
<g style="fill:#FFFFFF; fill-opacity:1.0000; 
stroke:#FFFFFF; stroke-width:0.0000; stroke-opacity:1; 
stroke-linecap:round; stroke-linejoin:round;">
<circle cx="48.3016" cy="5.0900" r="0.5000" /> 
</g>
<g style="fill:#FFFFFF; fill-opacity:1.0000; 
stroke:#FFFFFF; stroke-width:0.0212; stroke-opacity:1; 
stroke-linecap:round; stroke-linejoin:round;">
</g>
<g style="fill:#FFFFFF; fill-opacity:1.0000; 
stroke:#FFFFFF; stroke-width:0.0000; stroke-opacity:1; 
stroke-linecap:round; stroke-linejoin:round;">
<circle cx="48.3016" cy="2.5500" r="0.5000" /> 
</g>
<g style="fill:#FFFFFF; fill-opacity:1.0000; 
stroke:#FFFFFF; stroke-width:0.0212; stroke-opacity:1; 
stroke-linecap:round; stroke-linejoin:round;">
</g>
<g style="fill:#FFFFFF; fill-opacity:1.0000; 
stroke:#FFFFFF; stroke-width:0.0000; stroke-opacity:1; 
stroke-linecap:round; stroke-linejoin:round;">
<circle cx="50.8416" cy="7.6300" r="0.5000" /> 
</g>
<g style="fill:#FFFFFF; fill-opacity:1.0000; 
stroke:#FFFFFF; stroke-width:0.0212; stroke-opacity:1; 
stroke-linecap:round; stroke-linejoin:round;">
</g>
<g style="fill:#FFFFFF; fill-opacity:1.0000; 
stroke:#FFFFFF; stroke-width:0.0000; stroke-opacity:1; 
stroke-linecap:round; stroke-linejoin:round;">
<circle cx="50.8416" cy="5.0900" r="0.5000" /> 
</g>
<g style="fill:#FFFFFF; fill-opacity:1.0000; 
stroke:#FFFFFF; stroke-width:0.0212; stroke-opacity:1; 
stroke-linecap:round; stroke-linejoin:round;">
</g>
<g style="fill:#FFFFFF; fill-opacity:1.0000; 
stroke:#FFFFFF; stroke-width:0.0000; stroke-opacity:1; 
stroke-linecap:round; stroke-linejoin:round;">
<circle cx="50.8416" cy="2.5500" r="0.5000" /> 
</g>
<g style="fill:#FFFFFF; fill-opacity:1.0000; 
stroke:#FFFFFF; stroke-width:0.0212; stroke-opacity:1; 
stroke-linecap:round; stroke-linejoin:round;">
</g>
<g style="fill:#FFFFFF; fill-opacity:1.0000; 
stroke:#FFFFFF; stroke-width:0.0000; stroke-opacity:1; 
stroke-linecap:round; stroke-linejoin:round;">
<circle cx="25.0316" cy="69.0500" r="1.6000" /> 
</g>
<g style="fill:#FFFFFF; fill-opacity:1.0000; 
stroke:#FFFFFF; stroke-width:0.0212; stroke-opacity:1; 
stroke-linecap:round; stroke-linejoin:round;">
</g>
<g style="fill:#FFFFFF; fill-opacity:1.0000; 
stroke:#FFFFFF; stroke-width:1.6000; stroke-opacity:1; 
stroke-linecap:round; stroke-linejoin:round;">
</g>
<g style="fill:#FFFFFF; fill-opacity:0.0; 
stroke:#FFFFFF; stroke-width:1.6000; stroke-opacity:1; 
stroke-linecap:round; stroke-linejoin:round;">
<path d="M5.7316 60.0500
L3.3316 60.0500
" />
</g>
<g style="fill:#FFFFFF; fill-opacity:1.0000; 
stroke:#FFFFFF; stroke-width:0.0000; stroke-opacity:1; 
stroke-linecap:round; stroke-linejoin:round;">
<circle cx="31.7816" cy="31.8000" r="1.6000" /> 
</g>
<g style="fill:#FFFFFF; fill-opacity:1.0000; 
stroke:#FFFFFF; stroke-width:0.0212; stroke-opacity:1; 
stroke-linecap:round; stroke-linejoin:round;">
</g>
<g style="fill:#FFFFFF; fill-opacity:1.0000; 
stroke:#FFFFFF; stroke-width:0.0000; stroke-opacity:1; 
stroke-linecap:round; stroke-linejoin:round;">
<circle cx="32.3416" cy="13.5500" r="0.5000" /> 
</g>
<g style="fill:#FFFFFF; fill-opacity:1.0000; 
stroke:#FFFFFF; stroke-width:0.0212; stroke-opacity:1; 
stroke-linecap:round; stroke-linejoin:round;">
</g>
<g style="fill:#FFFFFF; fill-opacity:1.0000; 
stroke:#FFFFFF; stroke-width:0.0000; stroke-opacity:1; 
stroke-linecap:round; stroke-linejoin:round;">
<circle cx="29.8016" cy="13.5500" r="0.5000" /> 
</g>
<g style="fill:#FFFFFF; fill-opacity:1.0000; 
stroke:#FFFFFF; stroke-width:0.0212; stroke-opacity:1; 
stroke-linecap:round; stroke-linejoin:round;">
</g>
<g style="fill:#FFFFFF; fill-opacity:1.0000; 
stroke:#FFFFFF; stroke-width:0.0000; stroke-opacity:1; 
stroke-linecap:round; stroke-linejoin:round;">
<circle cx="27.2616" cy="13.5500" r="0.5000" /> 
</g>
<g style="fill:#FFFFFF; fill-opacity:1.0000; 
stroke:#FFFFFF; stroke-width:0.0212; stroke-opacity:1; 
stroke-linecap:round; stroke-linejoin:round;">
</g>
<g style="fill:#FFFFFF; fill-opacity:1.0000; 
stroke:#FFFFFF; stroke-width:0.0000; stroke-opacity:1; 
stroke-linecap:round; stroke-linejoin:round;">
<circle cx="24.7216" cy="13.5500" r="0.5000" /> 
</g>
<g style="fill:#FFFFFF; fill-opacity:1.0000; 
stroke:#FFFFFF; stroke-width:0.0212; stroke-opacity:1; 
stroke-linecap:round; stroke-linejoin:round;">
</g>
<g style="fill:#FFFFFF; fill-opacity:1.0000; 
stroke:#FFFFFF; stroke-width:0.0000; stroke-opacity:1; 
stroke-linecap:round; stroke-linejoin:round;">
<circle cx="59.0316" cy="78.0500" r="1.0500" /> 
</g>
<g style="fill:#FFFFFF; fill-opacity:1.0000; 
stroke:#FFFFFF; stroke-width:0.0212; stroke-opacity:1; 
stroke-linecap:round; stroke-linejoin:round;">
</g>
<g style="fill:#FFFFFF; fill-opacity:1.0000; 
stroke:#FFFFFF; stroke-width:0.0000; stroke-opacity:1; 
stroke-linecap:round; stroke-linejoin:round;">
<circle cx="31.7816" cy="62.3000" r="1.6000" /> 
</g>
<g style="fill:#FFFFFF; fill-opacity:1.0000; 
stroke:#FFFFFF; stroke-width:0.0212; stroke-opacity:1; 
stroke-linecap:round; stroke-linejoin:round;">
</g>
<g style="fill:#FFFFFF; fill-opacity:1.0000; 
stroke:#FFFFFF; stroke-width:1.6000; stroke-opacity:1; 
stroke-linecap:round; stroke-linejoin:round;">
</g>
<g style="fill:#FFFFFF; fill-opacity:0.0; 
stroke:#FFFFFF; stroke-width:1.6000; stroke-opacity:1; 
stroke-linecap:round; stroke-linejoin:round;">
<path d="M5.7316 34.0500
L3.3316 34.0500
" />
</g>
<g style="fill:#FFFFFF; fill-opacity:1.0000; 
stroke:#FFFFFF; stroke-width:0.0000; stroke-opacity:1; 
stroke-linecap:round; stroke-linejoin:round;">
<circle cx="83.0316" cy="64.0500" r="1.0500" /> 
</g>
<g style="fill:#FFFFFF; fill-opacity:1.0000; 
stroke:#FFFFFF; stroke-width:0.0212; stroke-opacity:1; 
stroke-linecap:round; stroke-linejoin:round;">
</g>
<g style="fill:#FFFFFF; fill-opacity:1.0000; 
stroke:#FFFFFF; stroke-width:0.0000; stroke-opacity:1; 
stroke-linecap:round; stroke-linejoin:round;">
<circle cx="83.0316" cy="71.0500" r="1.0500" /> 
</g>
<g style="fill:#FFFFFF; fill-opacity:1.0000; 
stroke:#FFFFFF; stroke-width:0.0212; stroke-opacity:1; 
stroke-linecap:round; stroke-linejoin:round;">
</g>
<g style="fill:#FFFFFF; fill-opacity:1.0000; 
stroke:#FFFFFF; stroke-width:0.0000; stroke-opacity:1; 
stroke-linecap:round; stroke-linejoin:round;">
<circle cx="11.0316" cy="23.0500" r="1.0500" /> 
</g>
<g style="fill:#FFFFFF; fill-opacity:1.0000; 
stroke:#FFFFFF; stroke-width:0.0212; stroke-opacity:1; 
stroke-linecap:round; stroke-linejoin:round;">
</g>
<g style="fill:#FFFFFF; fill-opacity:1.0000; 
stroke:#FFFFFF; stroke-width:0.0000; stroke-opacity:1; 
stroke-linecap:round; stroke-linejoin:round;">
<circle cx="71.8816" cy="13.5500" r="0.5000" /> 
</g>
<g style="fill:#FFFFFF; fill-opacity:1.0000; 
stroke:#FFFFFF; stroke-width:0.0212; stroke-opacity:1; 
stroke-linecap:round; stroke-linejoin:round;">
</g>
<g style="fill:#FFFFFF; fill-opacity:1.0000; 
stroke:#FFFFFF; stroke-width:0.0000; stroke-opacity:1; 
stroke-linecap:round; stroke-linejoin:round;">
<circle cx="69.3416" cy="13.5500" r="0.5000" /> 
</g>
<g style="fill:#FFFFFF; fill-opacity:1.0000; 
stroke:#FFFFFF; stroke-width:0.0212; stroke-opacity:1; 
stroke-linecap:round; stroke-linejoin:round;">
</g>
<g style="fill:#FFFFFF; fill-opacity:1.0000; 
stroke:#FFFFFF; stroke-width:0.0000; stroke-opacity:1; 
stroke-linecap:round; stroke-linejoin:round;">
<circle cx="66.8016" cy="13.5500" r="0.5000" /> 
</g>
<g style="fill:#FFFFFF; fill-opacity:1.0000; 
stroke:#FFFFFF; stroke-width:0.0212; stroke-opacity:1; 
stroke-linecap:round; stroke-linejoin:round;">
</g>
<g style="fill:#FFFFFF; fill-opacity:1.0000; 
stroke:#FFFFFF; stroke-width:0.0000; stroke-opacity:1; 
stroke-linecap:round; stroke-linejoin:round;">
<circle cx="64.2616" cy="13.5500" r="0.5000" /> 
</g>
<g style="fill:#FFFFFF; fill-opacity:1.0000; 
stroke:#FFFFFF; stroke-width:0.0212; stroke-opacity:1; 
stroke-linecap:round; stroke-linejoin:round;">
</g>
<g style="fill:#FFFFFF; fill-opacity:1.0000; 
stroke:#FFFFFF; stroke-width:0.0000; stroke-opacity:1; 
stroke-linecap:round; stroke-linejoin:round;">
<circle cx="61.7216" cy="13.5500" r="0.5000" /> 
</g>
<g style="fill:#FFFFFF; fill-opacity:1.0000; 
stroke:#FFFFFF; stroke-width:0.0212; stroke-opacity:1; 
stroke-linecap:round; stroke-linejoin:round;">
</g>
<g style="fill:#FFFFFF; fill-opacity:1.0000; 
stroke:#FFFFFF; stroke-width:0.0000; stroke-opacity:1; 
stroke-linecap:round; stroke-linejoin:round;">
<circle cx="59.1816" cy="13.5500" r="0.5000" /> 
</g>
<g style="fill:#FFFFFF; fill-opacity:1.0000; 
stroke:#FFFFFF; stroke-width:0.0212; stroke-opacity:1; 
stroke-linecap:round; stroke-linejoin:round;">
</g>
<g style="fill:#FFFFFF; fill-opacity:1.0000; 
stroke:#FFFFFF; stroke-width:0.0000; stroke-opacity:1; 
stroke-linecap:round; stroke-linejoin:round;">
<circle cx="62.2816" cy="31.8000" r="1.6000" /> 
</g>
<g style="fill:#FFFFFF; fill-opacity:1.0000; 
stroke:#FFFFFF; stroke-width:0.0212; stroke-opacity:1; 
stroke-linecap:round; stroke-linejoin:round;">
</g>
<g style="fill:#FFFFFF; fill-opacity:1.0000; 
stroke:#FFFFFF; stroke-width:1.6000; stroke-opacity:1; 
stroke-linecap:round; stroke-linejoin:round;">
</g>
<g style="fill:#FFFFFF; fill-opacity:0.0; 
stroke:#FFFFFF; stroke-width:1.6000; stroke-opacity:1; 
stroke-linecap:round; stroke-linejoin:round;">
<path d="M90.7316 75.0500
L88.3316 75.0500
" />
</g>
<g style="fill:#000000; fill-opacity:0.0; 
stroke:#000000; stroke-width:1.6000; stroke-opacity:1; 
stroke-linecap:round; stroke-linejoin:round;">
</g>
<g style="fill:#D0D2CD; fill-opacity:0.0; 
stroke:#D0D2CD; stroke-width:1.6000; stroke-opacity:1; 
stroke-linecap:round; stroke-linejoin:round;">
</g>
<g style="fill:#D0D2CD; fill-opacity:0.0; 
stroke:#D0D2CD; stroke-width:0.1000; stroke-opacity:1; 
stroke-linecap:round; stroke-linejoin:round;">
<path d="M4.0316 0.0500 A4.0000 4.0000 0.0 0 0 0.0316 4.0500" />
<path d="M94.0316 90.0500
L94.0316 4.0500
" />
<path d="M94.0316 4.0500 A4.0000 4.0000 0.0 0 0 90.0316 0.0500" />
<path d="M4.0316 94.0500
L90.0316 94.0500
" />
<path d="M90.0316 0.0500
L4.0316 0.0500
" />
<path d="M90.0316 94.0500 A4.0000 4.0000 0.0 0 0 94.0316 90.0500" />
<path d="M0.0316 4.0500
L0.0316 90.0500
" />
<path d="M0.0316 90.0500 A4.0000 4.0000 0.0 0 0 4.0316 94.0500" />
<g >
</g>
<g >
</g>
<g >
</g>
<g >
</g>
<g >
</g>
<g >
</g>
<g >
</g>
<g >
</g>
<g >
</g>
<g >
</g>
<g >
</g>
<g >
</g>
<g >
</g>
<g >
</g>
<g >
</g>
<g >
</g>
<g >
</g>
<g >
</g>
<g >
</g>
<g >
</g>
<g >
</g>
<g >
</g>
<g >
</g>
<g >
</g>
<g >
</g>
<g >
</g>
<g >
</g>
<g >
</g>
<g >
</g>
<g >
</g>
<g >
</g>
<g >
</g>
<g >
</g>
<g >
</g>
<g >
</g>
<g >
</g>
<g >
</g>
<g >
</g>
<g >
</g>
<g >
</g>
</g> 
</svg>
